<svg width="390" height="63" viewBox="0 0 390 63" fill="none" xmlns="http://www.w3.org/2000/svg">
<path d="M73.2958 25.3493C71.8113 25.3493 70.4432 24.9927 69.1915 24.2796C67.9398 23.5664 66.9428 22.5912 66.2006 21.3541C65.4728 20.1024 65.109 18.7125 65.109 17.1843C65.109 15.6561 65.4728 14.2734 66.2006 13.0363C66.9428 11.7846 67.9398 10.8022 69.1915 10.089C70.4432 9.37585 71.8113 9.01927 73.2958 9.01927C74.4747 9.01927 75.5736 9.23031 76.5924 9.65239C77.6112 10.0745 78.4627 10.6639 79.1467 11.4207L77.4438 13.1236C76.9344 12.556 76.3232 12.1194 75.61 11.8137C74.9114 11.5081 74.1327 11.3553 73.274 11.3553C72.2698 11.3553 71.331 11.5954 70.4577 12.0757C69.5845 12.556 68.8859 13.24 68.3619 14.1279C67.8379 15.0157 67.576 16.0345 67.576 17.1843C67.576 18.3341 67.8379 19.3529 68.3619 20.2407C68.8859 21.1285 69.5845 21.8126 70.4577 22.2929C71.331 22.7732 72.277 23.0133 73.2958 23.0133C74.2273 23.0133 75.006 22.8751 75.6318 22.5985C76.2577 22.322 76.818 21.9509 77.3129 21.4851C77.6331 21.1649 77.9023 20.7647 78.1206 20.2844C78.3535 19.8041 78.5063 19.2801 78.5791 18.7125H73.274V16.5293H80.8932C80.966 16.9369 81.0024 17.3589 81.0024 17.7956C81.0024 18.7853 80.8496 19.7386 80.5439 20.6555C80.2383 21.5579 79.7507 22.3438 79.0812 23.0133C77.6112 24.5706 75.6828 25.3493 73.2958 25.3493ZM87.4516 25.3493C86.3309 25.3493 85.3266 25.0946 84.4388 24.5852C83.551 24.0612 82.8597 23.3481 82.3648 22.4457C81.87 21.5433 81.6225 20.5391 81.6225 19.4329C81.6225 18.3268 81.87 17.3226 82.3648 16.4202C82.8597 15.5178 83.551 14.8119 84.4388 14.3025C85.3266 13.7786 86.3309 13.5166 87.4516 13.5166C88.5723 13.5166 89.5765 13.7786 90.4643 14.3025C91.3522 14.8265 92.0435 15.5396 92.5383 16.442C93.0332 17.3444 93.2806 18.3414 93.2806 19.4329C93.2806 20.5391 93.0332 21.5433 92.5383 22.4457C92.0435 23.3481 91.3522 24.0612 90.4643 24.5852C89.5765 25.0946 88.5723 25.3493 87.4516 25.3493ZM87.4516 23.1443C88.0629 23.1443 88.6305 22.9988 89.1545 22.7077C89.6784 22.402 90.0932 21.9727 90.3989 21.4196C90.719 20.852 90.8791 20.1898 90.8791 19.4329C90.8791 18.6761 90.719 18.0212 90.3989 17.4681C90.0932 16.915 89.6784 16.493 89.1545 16.2019C88.6305 15.8962 88.0629 15.7434 87.4516 15.7434C86.8403 15.7434 86.2727 15.8962 85.7487 16.2019C85.2248 16.493 84.8027 16.915 84.4825 17.4681C84.1768 18.0212 84.024 18.6761 84.024 19.4329C84.024 20.1898 84.1768 20.852 84.4825 21.4196C84.8027 21.9727 85.2248 22.402 85.7487 22.7077C86.2727 22.9988 86.8403 23.1443 87.4516 23.1443ZM99.621 25.3493C98.5003 25.3493 97.4961 25.0946 96.6082 24.5852C95.7204 24.0612 95.0291 23.3481 94.5342 22.4457C94.0394 21.5433 93.792 20.5391 93.792 19.4329C93.792 18.3268 94.0394 17.3226 94.5342 16.4202C95.0291 15.5178 95.7204 14.8119 96.6082 14.3025C97.4961 13.7786 98.5003 13.5166 99.621 13.5166C100.742 13.5166 101.746 13.7786 102.634 14.3025C103.522 14.8265 104.213 15.5396 104.708 16.442C105.203 17.3444 105.45 18.3414 105.45 19.4329C105.45 20.5391 105.203 21.5433 104.708 22.4457C104.213 23.3481 103.522 24.0612 102.634 24.5852C101.746 25.0946 100.742 25.3493 99.621 25.3493ZM99.621 23.1443C100.232 23.1443 100.8 22.9988 101.324 22.7077C101.848 22.402 102.263 21.9727 102.568 21.4196C102.888 20.852 103.049 20.1898 103.049 19.4329C103.049 18.6761 102.888 18.0212 102.568 17.4681C102.263 16.915 101.848 16.493 101.324 16.2019C100.8 15.8962 100.232 15.7434 99.621 15.7434C99.0097 15.7434 98.4421 15.8962 97.9181 16.2019C97.3942 16.493 96.9721 16.915 96.6519 17.4681C96.3463 18.0212 96.1934 18.6761 96.1934 19.4329C96.1934 20.1898 96.3463 20.852 96.6519 21.4196C96.9721 21.9727 97.3942 22.402 97.9181 22.7077C98.4421 22.9988 99.0097 23.1443 99.621 23.1443ZM111.594 30.0649C110.226 30.0649 109.091 29.752 108.188 29.1262C107.3 28.5003 106.704 27.7581 106.398 26.8993L108.647 25.9606C108.88 26.5428 109.251 27.0085 109.76 27.3578C110.284 27.7217 110.895 27.9036 111.594 27.9036C112.613 27.9036 113.406 27.598 113.974 26.9867C114.556 26.3899 114.847 25.5458 114.847 24.4542V23.4281H114.716C114.352 23.9521 113.864 24.3669 113.253 24.6725C112.656 24.9636 111.965 25.1092 111.179 25.1092C110.248 25.1092 109.382 24.869 108.581 24.3887C107.781 23.9084 107.14 23.2316 106.66 22.3584C106.194 21.4706 105.961 20.459 105.961 19.3238C105.961 18.1885 106.194 17.1843 106.66 16.311C107.14 15.4232 107.781 14.7391 108.581 14.2589C109.382 13.764 110.248 13.5166 111.179 13.5166C111.951 13.5166 112.642 13.6694 113.253 13.975C113.864 14.2807 114.352 14.6955 114.716 15.2194H114.847V13.8659H117.139V24.3887C117.139 25.5967 116.906 26.6228 116.441 27.467C115.975 28.3257 115.32 28.9734 114.476 29.41C113.646 29.8466 112.686 30.0649 111.594 30.0649ZM111.616 22.926C112.198 22.926 112.736 22.7877 113.231 22.5112C113.726 22.2201 114.119 21.8053 114.41 21.2668C114.701 20.7137 114.847 20.0661 114.847 19.3238C114.847 18.1885 114.534 17.308 113.908 16.6822C113.297 16.0418 112.533 15.7216 111.616 15.7216C111.019 15.7216 110.473 15.8671 109.978 16.1582C109.484 16.4347 109.091 16.8423 108.799 17.3808C108.508 17.9193 108.363 18.567 108.363 19.3238C108.363 20.0806 108.508 20.7283 108.799 21.2668C109.091 21.8053 109.484 22.2201 109.978 22.5112C110.473 22.7877 111.019 22.926 111.616 22.926ZM118.87 9.36858H121.271V25H118.87V9.36858ZM127.982 25.3493C126.89 25.3493 125.908 25.0946 125.035 24.5852C124.176 24.0758 123.499 23.3772 123.004 22.4894C122.524 21.587 122.284 20.5755 122.284 19.4548C122.284 18.3923 122.517 17.4099 122.983 16.5075C123.463 15.5906 124.125 14.8629 124.969 14.3243C125.813 13.7858 126.774 13.5166 127.851 13.5166C128.972 13.5166 129.94 13.764 130.755 14.2589C131.584 14.7537 132.21 15.4305 132.632 16.2892C133.069 17.1479 133.287 18.1158 133.287 19.1928C133.287 19.3966 133.265 19.6513 133.222 19.9569H124.685C124.773 20.9903 125.137 21.7908 125.777 22.3584C126.432 22.9114 127.189 23.188 128.047 23.188C128.731 23.188 129.321 23.0352 129.816 22.7295C130.325 22.4093 130.733 21.98 131.038 21.4414L133.069 22.402C132.545 23.319 131.861 24.0394 131.017 24.5634C130.172 25.0873 129.161 25.3493 127.982 25.3493ZM130.842 18.123C130.813 17.7301 130.689 17.3444 130.471 16.966C130.252 16.573 129.918 16.2455 129.466 15.9835C129.03 15.7216 128.491 15.5906 127.851 15.5906C127.08 15.5906 126.425 15.8235 125.886 16.2892C125.362 16.7404 124.998 17.3517 124.795 18.123H130.842ZM138.801 9.36858H143.8C145.416 9.36858 146.827 9.69605 148.035 10.351C149.243 11.0059 150.168 11.9301 150.808 13.1236C151.463 14.3025 151.79 15.6561 151.79 17.1843C151.79 18.7125 151.463 20.0733 150.808 21.2668C150.168 22.4457 149.243 23.3626 148.035 24.0176C146.827 24.6725 145.416 25 143.8 25H138.801V9.36858ZM143.756 22.664C145.503 22.664 146.864 22.1837 147.839 21.2231C148.829 20.248 149.323 18.9017 149.323 17.1843C149.323 15.4814 148.829 14.1424 147.839 13.1673C146.864 12.1921 145.503 11.7046 143.756 11.7046H141.246V22.664H143.756ZM157.86 25.3493C156.768 25.3493 155.786 25.0946 154.912 24.5852C154.054 24.0758 153.377 23.3772 152.882 22.4894C152.402 21.587 152.162 20.5755 152.162 19.4548C152.162 18.3923 152.395 17.4099 152.86 16.5075C153.341 15.5906 154.003 14.8629 154.847 14.3243C155.691 13.7858 156.652 13.5166 157.729 13.5166C158.849 13.5166 159.817 13.764 160.632 14.2589C161.462 14.7537 162.088 15.4305 162.51 16.2892C162.946 17.1479 163.165 18.1158 163.165 19.1928C163.165 19.3966 163.143 19.6513 163.099 19.9569H154.563C154.65 20.9903 155.014 21.7908 155.655 22.3584C156.31 22.9114 157.066 23.188 157.925 23.188C158.609 23.188 159.199 23.0352 159.694 22.7295C160.203 22.4093 160.61 21.98 160.916 21.4414L162.946 22.402C162.422 23.319 161.738 24.0394 160.894 24.5634C160.05 25.0873 159.039 25.3493 157.86 25.3493ZM160.72 18.123C160.691 17.7301 160.567 17.3444 160.348 16.966C160.13 16.573 159.795 16.2455 159.344 15.9835C158.908 15.7216 158.369 15.5906 157.729 15.5906C156.957 15.5906 156.302 15.8235 155.764 16.2892C155.24 16.7404 154.876 17.3517 154.672 18.123H160.72ZM162.802 13.8659H165.488L168.566 21.8999H168.653L171.797 13.8659H174.417L169.789 25H167.387L162.802 13.8659ZM179.64 25.3493C178.549 25.3493 177.566 25.0946 176.693 24.5852C175.834 24.0758 175.157 23.3772 174.663 22.4894C174.182 21.587 173.942 20.5755 173.942 19.4548C173.942 18.3923 174.175 17.4099 174.641 16.5075C175.121 15.5906 175.783 14.8629 176.627 14.3243C177.472 13.7858 178.432 13.5166 179.509 13.5166C180.63 13.5166 181.598 13.764 182.413 14.2589C183.242 14.7537 183.868 15.4305 184.29 16.2892C184.727 17.1479 184.945 18.1158 184.945 19.1928C184.945 19.3966 184.923 19.6513 184.88 19.9569H176.344C176.431 20.9903 176.795 21.7908 177.435 22.3584C178.09 22.9114 178.847 23.188 179.706 23.188C180.39 23.188 180.979 23.0352 181.474 22.7295C181.983 22.4093 182.391 21.98 182.697 21.4414L184.727 22.402C184.203 23.319 183.519 24.0394 182.675 24.5634C181.831 25.0873 180.819 25.3493 179.64 25.3493ZM182.5 18.123C182.471 17.7301 182.347 17.3444 182.129 16.966C181.911 16.573 181.576 16.2455 181.125 15.9835C180.688 15.7216 180.15 15.5906 179.509 15.5906C178.738 15.5906 178.083 15.8235 177.544 16.2892C177.02 16.7404 176.656 17.3517 176.453 18.123H182.5ZM186.041 9.36858H188.442V25H186.041V9.36858ZM195.283 25.3493C194.163 25.3493 193.159 25.0946 192.271 24.5852C191.383 24.0612 190.692 23.3481 190.197 22.4457C189.702 21.5433 189.454 20.5391 189.454 19.4329C189.454 18.3268 189.702 17.3226 190.197 16.4202C190.692 15.5178 191.383 14.8119 192.271 14.3025C193.159 13.7786 194.163 13.5166 195.283 13.5166C196.404 13.5166 197.408 13.7786 198.296 14.3025C199.184 14.8265 199.875 15.5396 200.37 16.442C200.865 17.3444 201.113 18.3414 201.113 19.4329C201.113 20.5391 200.865 21.5433 200.37 22.4457C199.875 23.3481 199.184 24.0612 198.296 24.5852C197.408 25.0946 196.404 25.3493 195.283 25.3493ZM195.283 23.1443C195.895 23.1443 196.462 22.9988 196.986 22.7077C197.51 22.402 197.925 21.9727 198.231 21.4196C198.551 20.852 198.711 20.1898 198.711 19.4329C198.711 18.6761 198.551 18.0212 198.231 17.4681C197.925 16.915 197.51 16.493 196.986 16.2019C196.462 15.8962 195.895 15.7434 195.283 15.7434C194.672 15.7434 194.105 15.8962 193.581 16.2019C193.057 16.493 192.635 16.915 192.314 17.4681C192.009 18.0212 191.856 18.6761 191.856 19.4329C191.856 20.1898 192.009 20.852 192.314 21.4196C192.635 21.9727 193.057 22.402 193.581 22.7077C194.105 22.9988 194.672 23.1443 195.283 23.1443ZM202.041 13.8659H204.334V15.3286H204.443C204.763 14.8192 205.236 14.3898 205.862 14.0405C206.488 13.6912 207.193 13.5166 207.979 13.5166C208.984 13.5166 209.893 13.7713 210.708 14.2807C211.523 14.7901 212.164 15.496 212.63 16.3983C213.11 17.2862 213.35 18.2977 213.35 19.4329C213.35 20.5682 213.11 21.587 212.63 22.4894C212.164 23.3772 211.523 24.0758 210.708 24.5852C209.893 25.0946 208.984 25.3493 207.979 25.3493C207.193 25.3493 206.488 25.1747 205.862 24.8253C205.236 24.476 204.763 24.054 204.443 23.5591H204.334L204.443 25.1092V29.7156H202.041V13.8659ZM207.63 23.1443C208.212 23.1443 208.758 22.9915 209.267 22.6859C209.777 22.3802 210.184 21.9436 210.49 21.376C210.796 20.8083 210.948 20.1607 210.948 19.4329C210.948 18.7052 210.796 18.0648 210.49 17.5118C210.184 16.9441 209.777 16.5075 209.267 16.2019C208.758 15.8962 208.212 15.7434 207.63 15.7434C207.048 15.7434 206.502 15.8962 205.993 16.2019C205.498 16.5075 205.098 16.9441 204.792 17.5118C204.486 18.0648 204.334 18.7052 204.334 19.4329C204.334 20.1607 204.486 20.8083 204.792 21.376C205.098 21.9436 205.498 22.3802 205.993 22.6859C206.502 22.9915 207.048 23.1443 207.63 23.1443ZM219.534 25.3493C218.442 25.3493 217.46 25.0946 216.587 24.5852C215.728 24.0758 215.051 23.3772 214.556 22.4894C214.076 21.587 213.836 20.5755 213.836 19.4548C213.836 18.3923 214.069 17.4099 214.535 16.5075C215.015 15.5906 215.677 14.8629 216.521 14.3243C217.365 13.7858 218.326 13.5166 219.403 13.5166C220.524 13.5166 221.492 13.764 222.307 14.2589C223.136 14.7537 223.762 15.4305 224.184 16.2892C224.621 17.1479 224.839 18.1158 224.839 19.1928C224.839 19.3966 224.817 19.6513 224.774 19.9569H216.237C216.325 20.9903 216.689 21.7908 217.329 22.3584C217.984 22.9114 218.741 23.188 219.599 23.188C220.283 23.188 220.873 23.0352 221.368 22.7295C221.877 22.4093 222.285 21.98 222.59 21.4414L224.621 22.402C224.097 23.319 223.413 24.0394 222.569 24.5634C221.724 25.0873 220.713 25.3493 219.534 25.3493ZM222.394 18.123C222.365 17.7301 222.241 17.3444 222.023 16.966C221.804 16.573 221.47 16.2455 221.018 15.9835C220.582 15.7216 220.043 15.5906 219.403 15.5906C218.632 15.5906 217.977 15.8235 217.438 16.2892C216.914 16.7404 216.55 17.3517 216.347 18.123H222.394ZM225.934 13.8659H228.227V15.5033H228.336C228.583 14.9356 229.013 14.4699 229.624 14.106C230.235 13.7276 230.883 13.5384 231.567 13.5384C232.105 13.5384 232.557 13.6112 232.92 13.7567V16.2455C232.28 16.0127 231.705 15.8962 231.196 15.8962C230.643 15.8962 230.148 16.0418 229.711 16.3329C229.289 16.6239 228.954 17.0169 228.707 17.5118C228.46 17.9921 228.336 18.5233 228.336 19.1055V25H225.934V13.8659ZM241.946 25.3493C240.65 25.3493 239.486 24.9709 238.453 24.2141C237.419 23.4572 236.706 22.3948 236.313 21.0266L238.627 20.0879C238.86 20.9466 239.268 21.6525 239.85 22.2056C240.447 22.7441 241.16 23.0133 241.989 23.0133C242.761 23.0133 243.416 22.8168 243.954 22.4239C244.493 22.0163 244.762 21.4633 244.762 20.7647C244.762 20.1243 244.522 19.6003 244.041 19.1928C243.576 18.7707 242.753 18.3486 241.574 17.9266L240.592 17.5773C239.544 17.2134 238.664 16.6894 237.95 16.0054C237.237 15.3213 236.881 14.419 236.881 13.2983C236.881 12.5269 237.092 11.8137 237.514 11.1588C237.936 10.5038 238.518 9.98714 239.26 9.60872C240.017 9.21575 240.869 9.01927 241.815 9.01927C243.183 9.01927 244.274 9.35402 245.089 10.0235C245.904 10.6785 246.45 11.4207 246.727 12.2503L244.522 13.1891C244.362 12.6943 244.056 12.2576 243.605 11.8792C243.154 11.5008 242.571 11.3116 241.858 11.3116C241.145 11.3116 240.541 11.4935 240.046 11.8574C239.566 12.2212 239.326 12.687 239.326 13.2546C239.326 13.7931 239.544 14.237 239.981 14.5863C240.417 14.9356 241.101 15.2704 242.033 15.5906L243.015 15.9181C244.354 16.3838 245.388 16.9951 246.115 17.7519C246.858 18.4942 247.229 19.4912 247.229 20.7428C247.229 21.7616 246.967 22.6204 246.443 23.319C245.919 24.003 245.249 24.5124 244.434 24.8472C243.634 25.1819 242.804 25.3493 241.946 25.3493ZM252.55 25.1747C252.056 25.1747 251.59 25.0946 251.153 24.9345C250.717 24.7744 250.36 24.5634 250.084 24.3014C249.458 23.6755 249.145 22.8241 249.145 21.7471V15.9835H247.202V13.8659H249.145V10.7221H251.546V13.8659H254.253V15.9835H251.546V21.2231C251.546 21.8199 251.663 22.2419 251.896 22.4894C252.114 22.7805 252.492 22.926 253.031 22.926C253.278 22.926 253.497 22.8969 253.686 22.8387C253.875 22.7659 254.079 22.6567 254.297 22.5112V24.8472C253.817 25.0655 253.235 25.1747 252.55 25.1747ZM259.506 25.3493C258.153 25.3493 257.119 24.9491 256.406 24.1486C255.707 23.3335 255.358 22.2056 255.358 20.7647V13.8659H257.76V20.4372C257.76 21.3396 257.971 22.0163 258.393 22.4675C258.829 22.9187 259.397 23.1443 260.096 23.1443C260.663 23.1443 261.165 22.9988 261.602 22.7077C262.039 22.402 262.373 22.0018 262.606 21.5069C262.839 21.0121 262.955 20.4809 262.955 19.9132V13.8659H265.357V25H263.086V23.5591H262.955C262.65 24.0831 262.177 24.5124 261.536 24.8472C260.896 25.1819 260.219 25.3493 259.506 25.3493ZM271.713 25.3493C270.709 25.3493 269.799 25.0946 268.984 24.5852C268.169 24.0758 267.521 23.3772 267.041 22.4894C266.575 21.587 266.343 20.5682 266.343 19.4329C266.343 18.2977 266.575 17.2862 267.041 16.3983C267.521 15.496 268.169 14.7901 268.984 14.2807C269.799 13.7713 270.709 13.5166 271.713 13.5166C272.499 13.5166 273.205 13.6912 273.831 14.0405C274.457 14.3898 274.93 14.8192 275.25 15.3286H275.359L275.25 13.7567V9.36858H277.651V25H275.359V23.5591H275.25C274.93 24.054 274.457 24.476 273.831 24.8253C273.205 25.1747 272.499 25.3493 271.713 25.3493ZM272.062 23.1443C272.645 23.1443 273.183 22.9915 273.678 22.6859C274.187 22.3802 274.595 21.9436 274.901 21.376C275.206 20.8083 275.359 20.1607 275.359 19.4329C275.359 18.7052 275.206 18.0648 274.901 17.5118C274.595 16.9441 274.187 16.5075 273.678 16.2019C273.183 15.8962 272.645 15.7434 272.062 15.7434C271.48 15.7434 270.935 15.8962 270.425 16.2019C269.916 16.5075 269.508 16.9441 269.203 17.5118C268.897 18.0648 268.744 18.7052 268.744 19.4329C268.744 20.1607 268.897 20.8083 269.203 21.376C269.508 21.9436 269.916 22.3802 270.425 22.6859C270.935 22.9915 271.48 23.1443 272.062 23.1443ZM284.338 25.3493C283.246 25.3493 282.264 25.0946 281.391 24.5852C280.532 24.0758 279.855 23.3772 279.36 22.4894C278.88 21.587 278.64 20.5755 278.64 19.4548C278.64 18.3923 278.873 17.4099 279.339 16.5075C279.819 15.5906 280.481 14.8629 281.325 14.3243C282.169 13.7858 283.13 13.5166 284.207 13.5166C285.328 13.5166 286.296 13.764 287.111 14.2589C287.94 14.7537 288.566 15.4305 288.988 16.2892C289.425 17.1479 289.643 18.1158 289.643 19.1928C289.643 19.3966 289.621 19.6513 289.578 19.9569H281.041C281.129 20.9903 281.493 21.7908 282.133 22.3584C282.788 22.9114 283.545 23.188 284.403 23.188C285.088 23.188 285.677 23.0352 286.172 22.7295C286.681 22.4093 287.089 21.98 287.394 21.4414L289.425 22.402C288.901 23.319 288.217 24.0394 287.373 24.5634C286.528 25.0873 285.517 25.3493 284.338 25.3493ZM287.198 18.123C287.169 17.7301 287.045 17.3444 286.827 16.966C286.608 16.573 286.274 16.2455 285.823 15.9835C285.386 15.7216 284.847 15.5906 284.207 15.5906C283.436 15.5906 282.781 15.8235 282.242 16.2892C281.718 16.7404 281.354 17.3517 281.151 18.123H287.198ZM290.738 13.8659H293.031V15.3286H293.14C293.46 14.8046 293.933 14.3753 294.559 14.0405C295.199 13.6912 295.876 13.5166 296.589 13.5166C297.943 13.5166 298.969 13.9168 299.668 14.7173C300.381 15.5033 300.737 16.5803 300.737 17.9484V25H298.336V18.2759C298.336 17.4026 298.117 16.7622 297.681 16.3547C297.259 15.9472 296.669 15.7434 295.912 15.7434C295.374 15.7434 294.894 15.8962 294.472 16.2019C294.05 16.493 293.722 16.8859 293.489 17.3808C293.256 17.8756 293.14 18.4069 293.14 18.9745V25H290.738V13.8659ZM306.362 25.1747C305.867 25.1747 305.401 25.0946 304.965 24.9345C304.528 24.7744 304.172 24.5634 303.895 24.3014C303.269 23.6755 302.956 22.8241 302.956 21.7471V15.9835H301.013V13.8659H302.956V10.7221H305.358V13.8659H308.065V15.9835H305.358V21.2231C305.358 21.8199 305.474 22.2419 305.707 22.4894C305.925 22.7805 306.304 22.926 306.842 22.926C307.09 22.926 307.308 22.8969 307.497 22.8387C307.686 22.7659 307.89 22.6567 308.108 22.5112V24.8472C307.628 25.0655 307.046 25.1747 306.362 25.1747ZM320.628 25.3493C319.114 25.3493 317.731 24.9927 316.48 24.2796C315.228 23.5664 314.246 22.584 313.532 21.3323C312.819 20.0806 312.463 18.6979 312.463 17.1843C312.463 15.6706 312.819 14.288 313.532 13.0363C314.246 11.7846 315.228 10.8022 316.48 10.089C317.731 9.37585 319.114 9.01927 320.628 9.01927C321.807 9.01927 322.876 9.23759 323.837 9.67422C324.812 10.1108 325.671 10.744 326.413 11.5736L324.667 13.2546C324.128 12.6142 323.531 12.1412 322.876 11.8355C322.221 11.5153 321.472 11.3553 320.628 11.3553C319.58 11.3553 318.619 11.5954 317.746 12.0757C316.887 12.556 316.203 13.24 315.694 14.1279C315.184 15.0011 314.93 16.0199 314.93 17.1843C314.93 18.3486 315.184 19.3747 315.694 20.2625C316.203 21.1358 316.887 21.8126 317.746 22.2929C318.619 22.7732 319.58 23.0133 320.628 23.0133C322.374 23.0133 323.859 22.2856 325.081 20.8302L326.85 22.533C326.093 23.4208 325.183 24.1122 324.121 24.607C323.058 25.1019 321.894 25.3493 320.628 25.3493ZM327.882 9.36858H330.283V25H327.882V9.36858ZM336.074 25.3493C334.721 25.3493 333.687 24.9491 332.974 24.1486C332.276 23.3335 331.926 22.2056 331.926 20.7647V13.8659H334.328V20.4372C334.328 21.3396 334.539 22.0163 334.961 22.4675C335.398 22.9187 335.965 23.1443 336.664 23.1443C337.231 23.1443 337.734 22.9988 338.17 22.7077C338.607 22.402 338.942 22.0018 339.175 21.5069C339.407 21.0121 339.524 20.4809 339.524 19.9132V13.8659H341.925V25H339.655V23.5591H339.524C339.218 24.0831 338.745 24.5124 338.105 24.8472C337.464 25.1819 336.788 25.3493 336.074 25.3493ZM349.567 25.3493C348.781 25.3493 348.075 25.1747 347.449 24.8253C346.824 24.476 346.351 24.054 346.03 23.5591H345.921V25H343.629V9.36858H346.03V13.7567L345.921 15.3286H346.03C346.351 14.8192 346.824 14.3898 347.449 14.0405C348.075 13.6912 348.781 13.5166 349.567 13.5166C350.571 13.5166 351.481 13.7713 352.296 14.2807C353.111 14.7901 353.751 15.496 354.217 16.3983C354.697 17.2862 354.938 18.2977 354.938 19.4329C354.938 20.5682 354.697 21.587 354.217 22.4894C353.751 23.3772 353.111 24.0758 352.296 24.5852C351.481 25.0946 350.571 25.3493 349.567 25.3493ZM349.218 23.1443C349.8 23.1443 350.346 22.9915 350.855 22.6859C351.365 22.3802 351.772 21.9436 352.078 21.376C352.383 20.8083 352.536 20.1607 352.536 19.4329C352.536 18.7052 352.383 18.0648 352.078 17.5118C351.772 16.9441 351.365 16.5075 350.855 16.2019C350.346 15.8962 349.8 15.7434 349.218 15.7434C348.636 15.7434 348.09 15.8962 347.58 16.2019C347.086 16.5075 346.685 16.9441 346.38 17.5118C346.074 18.0648 345.921 18.7052 345.921 19.4329C345.921 20.1607 346.074 20.8083 346.38 21.376C346.685 21.9436 347.086 22.3802 347.58 22.6859C348.09 22.9915 348.636 23.1443 349.218 23.1443ZM359.987 25.3493C358.706 25.3493 357.658 25.0728 356.843 24.5197C356.028 23.9521 355.453 23.2316 355.118 22.3584L357.258 21.4196C357.52 22.0018 357.884 22.4457 358.349 22.7513C358.83 23.057 359.376 23.2098 359.987 23.2098C360.584 23.2098 361.086 23.1079 361.493 22.9042C361.901 22.6859 362.105 22.3657 362.105 21.9436C362.105 21.5361 361.93 21.2159 361.581 20.983C361.231 20.7501 360.693 20.5464 359.965 20.3717L358.633 20.0442C357.745 19.8259 357.01 19.4402 356.428 18.8872C355.846 18.3341 355.555 17.6355 355.555 16.7913C355.555 16.1364 355.744 15.5615 356.123 15.0666C356.516 14.5718 357.04 14.1934 357.695 13.9314C358.349 13.6548 359.063 13.5166 359.834 13.5166C360.867 13.5166 361.777 13.7276 362.563 14.1497C363.349 14.5572 363.917 15.1539 364.266 15.9399L362.17 16.8568C361.748 15.9981 360.977 15.5687 359.856 15.5687C359.317 15.5687 358.866 15.6779 358.502 15.8962C358.138 16.1145 357.957 16.3983 357.957 16.7477C357.957 17.0824 358.095 17.3589 358.371 17.5773C358.648 17.781 359.055 17.9557 359.594 18.1012L361.231 18.516C362.323 18.7925 363.145 19.2146 363.698 19.7822C364.266 20.3353 364.55 21.0194 364.55 21.8344C364.55 22.533 364.346 23.1516 363.938 23.6901C363.545 24.2141 363 24.6216 362.301 24.9127C361.602 25.2038 360.831 25.3493 359.987 25.3493ZM65.4507 37.9532H67.5202L71.3564 47.8296H71.4237L75.2598 37.9532H77.3293V50H75.916V42.3446L75.9833 40.0564H75.916L71.9789 50H70.8011L66.8641 40.0564H66.7968L66.8641 42.3446V50H65.4507V37.9532ZM81.3936 50.2692C80.7654 50.2692 80.2046 50.1458 79.7111 49.899C79.2175 49.6523 78.8362 49.3158 78.567 48.8895C78.2978 48.4521 78.1632 47.9586 78.1632 47.4089C78.1632 46.5004 78.5053 45.7937 79.1895 45.289C79.8737 44.773 80.7374 44.515 81.7806 44.515C82.2965 44.515 82.7732 44.5711 83.2107 44.6833C83.6594 44.7954 84.0015 44.9244 84.237 45.0702V44.5487C84.237 43.9093 84.0127 43.3989 83.564 43.0176C83.1154 42.625 82.5489 42.4287 81.8647 42.4287C81.3824 42.4287 80.9393 42.5353 80.5355 42.7484C80.1317 42.9503 79.812 43.2363 79.5765 43.6065L78.4997 42.7989C78.8362 42.2829 79.2961 41.8791 79.8793 41.5874C80.4738 41.2958 81.13 41.15 81.8479 41.15C83.0144 41.15 83.9286 41.4585 84.5904 42.0754C85.2634 42.6811 85.5999 43.5111 85.5999 44.5655V50H84.237V48.7718H84.1697C83.923 49.1868 83.5528 49.5401 83.0593 49.8317C82.5657 50.1234 82.0105 50.2692 81.3936 50.2692ZM81.5282 49.0073C82.0105 49.0073 82.4592 48.8839 82.8742 48.6372C83.2892 48.3904 83.6201 48.0595 83.8669 47.6445C84.1136 47.2295 84.237 46.7752 84.237 46.2817C83.9678 46.1022 83.6369 45.9564 83.2443 45.8442C82.8518 45.732 82.4367 45.6759 81.9993 45.6759C81.2141 45.6759 80.6196 45.8386 80.2158 46.1639C79.8232 46.4892 79.6269 46.9098 79.6269 47.4258C79.6269 47.8969 79.8064 48.2782 80.1654 48.5699C80.5243 48.8615 80.9786 49.0073 81.5282 49.0073ZM86.6809 41.4192H88.0437V42.6979H88.111C88.369 42.2605 88.756 41.8959 89.2719 41.6043C89.7991 41.3014 90.388 41.15 91.0386 41.15C91.8013 41.15 92.4968 41.3463 93.1249 41.7389C93.753 42.1315 94.2466 42.6755 94.6055 43.3709C94.9644 44.0663 95.1439 44.8459 95.1439 45.7096C95.1439 46.5845 94.9644 47.3697 94.6055 48.0651C94.2466 48.7493 93.753 49.2877 93.1249 49.6803C92.4968 50.0729 91.8013 50.2692 91.0386 50.2692C90.388 50.2692 89.7991 50.1234 89.2719 49.8317C88.756 49.5289 88.369 49.1644 88.111 48.7381H88.0437L88.111 49.9159V53.6342H86.6809V41.4192ZM90.8703 48.9737C91.3639 48.9737 91.8294 48.8391 92.2668 48.5699C92.7043 48.3007 93.052 47.9193 93.31 47.4258C93.5792 46.921 93.7138 46.349 93.7138 45.7096C93.7138 45.0702 93.5792 44.5038 93.31 44.0103C93.052 43.5055 92.7043 43.1185 92.2668 42.8493C91.8294 42.5801 91.3639 42.4455 90.8703 42.4455C90.3768 42.4455 89.9113 42.5801 89.4738 42.8493C89.0364 43.1185 88.6887 43.4999 88.4307 43.9934C88.1727 44.487 88.0437 45.059 88.0437 45.7096C88.0437 46.3602 88.1727 46.9322 88.4307 47.4258C88.6887 47.9193 89.0364 48.3007 89.4738 48.5699C89.9113 48.8391 90.3768 48.9737 90.8703 48.9737ZM98.993 50.2692C97.9611 50.2692 97.1703 49.9663 96.6207 49.3606C96.0823 48.7549 95.8131 47.9081 95.8131 46.8201V41.4192H97.2432V46.6013C97.2432 47.4202 97.4283 48.0202 97.7985 48.4016C98.1686 48.783 98.6678 48.9737 99.2959 48.9737C99.7782 48.9737 100.204 48.8447 100.575 48.5867C100.956 48.3287 101.248 47.9922 101.45 47.5772C101.663 47.1622 101.769 46.7247 101.769 46.2648V41.4192H103.199V50H101.836V48.7549H101.769C101.534 49.1812 101.158 49.5401 100.642 49.8317C100.126 50.1234 99.5763 50.2692 98.993 50.2692ZM99.7502 37.6167H101.315L100.12 39.7535H98.8753L99.7502 37.6167ZM107.131 50.2692C106.503 50.2692 105.942 50.1458 105.448 49.899C104.955 49.6523 104.573 49.3158 104.304 48.8895C104.035 48.4521 103.9 47.9586 103.9 47.4089C103.9 46.5004 104.242 45.7937 104.927 45.289C105.611 44.773 106.475 44.515 107.518 44.515C108.034 44.515 108.51 44.5711 108.948 44.6833C109.397 44.7954 109.739 44.9244 109.974 45.0702V44.5487C109.974 43.9093 109.75 43.3989 109.301 43.0176C108.853 42.625 108.286 42.4287 107.602 42.4287C107.12 42.4287 106.676 42.5353 106.273 42.7484C105.869 42.9503 105.549 43.2363 105.314 43.6065L104.237 42.7989C104.573 42.2829 105.033 41.8791 105.616 41.5874C106.211 41.2958 106.867 41.15 107.585 41.15C108.752 41.15 109.666 41.4585 110.328 42.0754C111.001 42.6811 111.337 43.5111 111.337 44.5655V50H109.974V48.7718H109.907C109.66 49.1868 109.29 49.5401 108.796 49.8317C108.303 50.1234 107.748 50.2692 107.131 50.2692ZM107.265 49.0073C107.748 49.0073 108.196 48.8839 108.611 48.6372C109.026 48.3904 109.357 48.0595 109.604 47.6445C109.851 47.2295 109.974 46.7752 109.974 46.2817C109.705 46.1022 109.374 45.9564 108.981 45.8442C108.589 45.732 108.174 45.6759 107.736 45.6759C106.951 45.6759 106.357 45.8386 105.953 46.1639C105.56 46.4892 105.364 46.9098 105.364 47.4258C105.364 47.8969 105.544 48.2782 105.903 48.5699C106.261 48.8615 106.716 49.0073 107.265 49.0073ZM115.841 37.9532H117.91L121.746 47.8296H121.814L125.65 37.9532H127.719V50H126.306V42.3446L126.373 40.0564H126.306L122.369 50H121.191L117.254 40.0564H117.187L117.254 42.3446V50H115.841V37.9532ZM131.783 50.2692C131.155 50.2692 130.594 50.1458 130.101 49.899C129.607 49.6523 129.226 49.3158 128.957 48.8895C128.688 48.4521 128.553 47.9586 128.553 47.4089C128.553 46.5004 128.895 45.7937 129.579 45.289C130.264 44.773 131.127 44.515 132.17 44.515C132.686 44.515 133.163 44.5711 133.601 44.6833C134.049 44.7954 134.391 44.9244 134.627 45.0702V44.5487C134.627 43.9093 134.403 43.3989 133.954 43.0176C133.505 42.625 132.939 42.4287 132.255 42.4287C131.772 42.4287 131.329 42.5353 130.925 42.7484C130.522 42.9503 130.202 43.2363 129.966 43.6065L128.89 42.7989C129.226 42.2829 129.686 41.8791 130.269 41.5874C130.864 41.2958 131.52 41.15 132.238 41.15C133.404 41.15 134.318 41.4585 134.98 42.0754C135.653 42.6811 135.99 43.5111 135.99 44.5655V50H134.627V48.7718H134.56C134.313 49.1868 133.943 49.5401 133.449 49.8317C132.956 50.1234 132.4 50.2692 131.783 50.2692ZM131.918 49.0073C132.4 49.0073 132.849 48.8839 133.264 48.6372C133.679 48.3904 134.01 48.0595 134.257 47.6445C134.504 47.2295 134.627 46.7752 134.627 46.2817C134.358 46.1022 134.027 45.9564 133.634 45.8442C133.242 45.732 132.827 45.6759 132.389 45.6759C131.604 45.6759 131.01 45.8386 130.606 46.1639C130.213 46.4892 130.017 46.9098 130.017 47.4258C130.017 47.8969 130.196 48.2782 130.555 48.5699C130.914 48.8615 131.368 49.0073 131.918 49.0073ZM137.138 37.9532H138.568V50H137.138V37.9532ZM142.506 50.2692C141.878 50.2692 141.317 50.1458 140.824 49.899C140.33 49.6523 139.949 49.3158 139.68 48.8895C139.41 48.4521 139.276 47.9586 139.276 47.4089C139.276 46.5004 139.618 45.7937 140.302 45.289C140.986 44.773 141.85 44.515 142.893 44.515C143.409 44.515 143.886 44.5711 144.323 44.6833C144.772 44.7954 145.114 44.9244 145.35 45.0702V44.5487C145.35 43.9093 145.125 43.3989 144.677 43.0176C144.228 42.625 143.662 42.4287 142.977 42.4287C142.495 42.4287 142.052 42.5353 141.648 42.7484C141.244 42.9503 140.925 43.2363 140.689 43.6065L139.612 42.7989C139.949 42.2829 140.409 41.8791 140.992 41.5874C141.586 41.2958 142.243 41.15 142.96 41.15C144.127 41.15 145.041 41.4585 145.703 42.0754C146.376 42.6811 146.712 43.5111 146.712 44.5655V50H145.35V48.7718H145.282C145.036 49.1868 144.665 49.5401 144.172 49.8317C143.678 50.1234 143.123 50.2692 142.506 50.2692ZM142.641 49.0073C143.123 49.0073 143.572 48.8839 143.987 48.6372C144.402 48.3904 144.733 48.0595 144.979 47.6445C145.226 47.2295 145.35 46.7752 145.35 46.2817C145.08 46.1022 144.75 45.9564 144.357 45.8442C143.964 45.732 143.549 45.6759 143.112 45.6759C142.327 45.6759 141.732 45.8386 141.328 46.1639C140.936 46.4892 140.74 46.9098 140.74 47.4258C140.74 47.8969 140.919 48.2782 141.278 48.5699C141.637 48.8615 142.091 49.0073 142.641 49.0073ZM150.321 49.4616L146.771 41.4192H148.319L151.011 47.7959H151.045L153.636 41.4192H155.184L149.884 53.6342H148.403L150.321 49.4616ZM157.846 50.2692C157.218 50.2692 156.657 50.1458 156.163 49.899C155.67 49.6523 155.289 49.3158 155.019 48.8895C154.75 48.4521 154.616 47.9586 154.616 47.4089C154.616 46.5004 154.958 45.7937 155.642 45.289C156.326 44.773 157.19 44.515 158.233 44.515C158.749 44.515 159.226 44.5711 159.663 44.6833C160.112 44.7954 160.454 44.9244 160.689 45.0702V44.5487C160.689 43.9093 160.465 43.3989 160.016 43.0176C159.568 42.625 159.001 42.4287 158.317 42.4287C157.835 42.4287 157.392 42.5353 156.988 42.7484C156.584 42.9503 156.264 43.2363 156.029 43.6065L154.952 42.7989C155.289 42.2829 155.748 41.8791 156.332 41.5874C156.926 41.2958 157.582 41.15 158.3 41.15C159.467 41.15 160.381 41.4585 161.043 42.0754C161.716 42.6811 162.052 43.5111 162.052 44.5655V50H160.689V48.7718H160.622C160.375 49.1868 160.005 49.5401 159.512 49.8317C159.018 50.1234 158.463 50.2692 157.846 50.2692ZM157.981 49.0073C158.463 49.0073 158.912 48.8839 159.327 48.6372C159.742 48.3904 160.072 48.0595 160.319 47.6445C160.566 47.2295 160.689 46.7752 160.689 46.2817C160.42 46.1022 160.089 45.9564 159.697 45.8442C159.304 45.732 158.889 45.6759 158.452 45.6759C157.666 45.6759 157.072 45.8386 156.668 46.1639C156.276 46.4892 156.079 46.9098 156.079 47.4258C156.079 47.8969 156.259 48.2782 156.618 48.5699C156.977 48.8615 157.431 49.0073 157.981 49.0073ZM163.201 41.4192H164.563V42.6811H164.631C164.866 42.2548 165.242 41.8959 165.758 41.6043C166.274 41.3014 166.824 41.15 167.407 41.15C168.439 41.15 169.224 41.4528 169.762 42.0585C170.312 42.653 170.587 43.4663 170.587 44.4982V50H169.157V44.7169C169.157 43.9205 168.966 43.3429 168.585 42.9839C168.203 42.625 167.682 42.4455 167.02 42.4455C166.56 42.4455 166.145 42.5745 165.775 42.8325C165.416 43.0905 165.135 43.4326 164.934 43.8588C164.732 44.2739 164.631 44.7113 164.631 45.1712V50H163.201V41.4192ZM180.47 50.2692C179.304 50.2692 178.244 49.9944 177.291 49.4448C176.337 48.8952 175.586 48.1436 175.036 47.1902C174.498 46.2256 174.228 45.1544 174.228 43.9766C174.228 42.7989 174.498 41.7333 175.036 40.7798C175.586 39.8152 176.337 39.0581 177.291 38.5085C178.244 37.9588 179.304 37.684 180.47 37.684C181.368 37.684 182.187 37.8579 182.927 38.2056C183.678 38.5421 184.329 39.0244 184.879 39.6526L183.852 40.6452C183.392 40.0956 182.888 39.6918 182.338 39.4338C181.8 39.1758 181.177 39.0469 180.47 39.0469C179.596 39.0469 178.794 39.2544 178.064 39.6694C177.335 40.0732 176.752 40.6508 176.315 41.4024C175.888 42.1427 175.675 43.0008 175.675 43.9766C175.675 44.9525 175.888 45.8162 176.315 46.5677C176.752 47.308 177.335 47.8856 178.064 48.3007C178.794 48.7045 179.596 48.9064 180.47 48.9064C181.929 48.9064 183.168 48.3063 184.189 47.1061L185.232 48.1156C184.671 48.7774 183.981 49.3046 183.162 49.6971C182.344 50.0785 181.446 50.2692 180.47 50.2692ZM189.786 50.2692C188.945 50.2692 188.188 50.0673 187.515 49.6635C186.842 49.2597 186.315 48.7101 185.933 48.0146C185.563 47.3192 185.378 46.5509 185.378 45.7096C185.378 44.8683 185.563 44.1 185.933 43.4046C186.315 42.7091 186.842 42.1595 187.515 41.7557C188.188 41.3519 188.945 41.15 189.786 41.15C190.627 41.15 191.385 41.3519 192.058 41.7557C192.731 42.1595 193.252 42.7091 193.622 43.4046C194.004 44.1 194.194 44.8683 194.194 45.7096C194.194 46.5509 194.004 47.3192 193.622 48.0146C193.252 48.7101 192.731 49.2597 192.058 49.6635C191.385 50.0673 190.627 50.2692 189.786 50.2692ZM189.786 48.9737C190.313 48.9737 190.801 48.8447 191.25 48.5867C191.71 48.3175 192.074 47.9361 192.344 47.4426C192.624 46.949 192.764 46.3714 192.764 45.7096C192.764 45.0478 192.624 44.4701 192.344 43.9766C192.074 43.4831 191.71 43.1073 191.25 42.8493C190.801 42.5801 190.313 42.4455 189.786 42.4455C189.259 42.4455 188.765 42.5801 188.306 42.8493C187.846 43.1073 187.476 43.4831 187.195 43.9766C186.926 44.4701 186.791 45.0478 186.791 45.7096C186.791 46.3714 186.926 46.949 187.195 47.4426C187.476 47.9361 187.846 48.3175 188.306 48.5867C188.765 48.8447 189.259 48.9737 189.786 48.9737ZM194.932 37.9532H196.362V50H194.932V37.9532ZM197.639 37.9532H199.07V50H197.639V37.9532ZM204.084 50.2692C203.266 50.2692 202.531 50.0729 201.88 49.6803C201.23 49.2877 200.719 48.7493 200.349 48.0651C199.99 47.3697 199.811 46.5901 199.811 45.7264C199.811 44.8964 199.979 44.1336 200.316 43.4382C200.663 42.7428 201.151 42.1875 201.779 41.7725C202.407 41.3575 203.137 41.15 203.967 41.15C204.808 41.15 205.537 41.3407 206.154 41.722C206.771 42.0922 207.242 42.6082 207.567 43.27C207.904 43.9317 208.072 44.6889 208.072 45.5413C208.072 45.7096 208.055 45.8554 208.021 45.9788H201.241C201.275 46.6294 201.432 47.179 201.712 47.6277C201.992 48.0763 202.346 48.4128 202.772 48.6372C203.209 48.8615 203.664 48.9737 204.135 48.9737C205.234 48.9737 206.081 48.4577 206.675 47.4258L207.887 48.0146C207.517 48.7101 207.012 49.2597 206.373 49.6635C205.744 50.0673 204.982 50.2692 204.084 50.2692ZM206.558 44.801C206.535 44.4421 206.434 44.0832 206.255 43.7242C206.075 43.3653 205.789 43.0624 205.397 42.8157C205.015 42.5689 204.533 42.4455 203.95 42.4455C203.277 42.4455 202.705 42.6643 202.234 43.1017C201.774 43.5279 201.471 44.0944 201.325 44.801H206.558ZM212.755 53.9034C211.746 53.9034 210.91 53.6679 210.248 53.1968C209.598 52.7257 209.16 52.1592 208.936 51.4974L210.232 50.9422C210.422 51.4357 210.736 51.8339 211.174 52.1368C211.622 52.4509 212.15 52.6079 212.755 52.6079C213.641 52.6079 214.326 52.3499 214.808 51.8339C215.302 51.318 215.548 50.5889 215.548 49.6467V48.6876H215.481C215.201 49.1251 214.802 49.484 214.286 49.7644C213.782 50.0337 213.204 50.1683 212.553 50.1683C211.813 50.1683 211.135 49.9776 210.518 49.5962C209.912 49.2148 209.43 48.682 209.071 47.9978C208.712 47.3136 208.532 46.534 208.532 45.6591C208.532 44.7954 208.712 44.0215 209.071 43.3373C209.43 42.6418 209.912 42.1034 210.518 41.722C211.135 41.3407 211.813 41.15 212.553 41.15C213.204 41.15 213.782 41.2902 214.286 41.5706C214.802 41.8398 215.201 42.1988 215.481 42.6474H215.548V41.4192H216.911V49.6635C216.911 51.0432 216.53 52.0919 215.767 52.8098C215.004 53.5389 214 53.9034 212.755 53.9034ZM212.755 48.8727C213.271 48.8727 213.737 48.7437 214.152 48.4857C214.578 48.2278 214.915 47.8576 215.161 47.3753C215.419 46.893 215.548 46.3209 215.548 45.6591C215.548 44.9861 215.419 44.4085 215.161 43.9261C214.915 43.4438 214.578 43.0793 214.152 42.8325C213.737 42.5745 213.271 42.4455 212.755 42.4455C212.239 42.4455 211.768 42.5745 211.342 42.8325C210.916 43.0905 210.574 43.4606 210.316 43.943C210.069 44.4253 209.946 44.9973 209.946 45.6591C209.946 46.3209 210.069 46.8986 210.316 47.3921C210.574 47.8744 210.916 48.2446 211.342 48.5026C211.768 48.7493 212.239 48.8727 212.755 48.8727ZM221.922 50.2692C221.103 50.2692 220.368 50.0729 219.718 49.6803C219.067 49.2877 218.557 48.7493 218.186 48.0651C217.827 47.3697 217.648 46.5901 217.648 45.7264C217.648 44.8964 217.816 44.1336 218.153 43.4382C218.5 42.7428 218.988 42.1875 219.617 41.7725C220.245 41.3575 220.974 41.15 221.804 41.15C222.645 41.15 223.374 41.3407 223.991 41.722C224.608 42.0922 225.079 42.6082 225.404 43.27C225.741 43.9317 225.909 44.6889 225.909 45.5413C225.909 45.7096 225.892 45.8554 225.859 45.9788H219.078C219.112 46.6294 219.269 47.179 219.549 47.6277C219.83 48.0763 220.183 48.4128 220.609 48.6372C221.047 48.8615 221.501 48.9737 221.972 48.9737C223.071 48.9737 223.918 48.4577 224.513 47.4258L225.724 48.0146C225.354 48.7101 224.849 49.2597 224.21 49.6635C223.582 50.0673 222.819 50.2692 221.922 50.2692ZM224.395 44.801C224.372 44.4421 224.272 44.0832 224.092 43.7242C223.913 43.3653 223.627 43.0624 223.234 42.8157C222.853 42.5689 222.37 42.4455 221.787 42.4455C221.114 42.4455 220.542 42.6643 220.071 43.1017C219.611 43.5279 219.308 44.0944 219.162 44.801H224.395ZM229.819 50.2692C228.899 50.2692 228.13 50.0561 227.514 49.6298C226.897 49.1924 226.459 48.6372 226.201 47.9642L227.48 47.3921C227.693 47.9081 228.007 48.3063 228.422 48.5867C228.848 48.8671 229.314 49.0073 229.819 49.0073C230.357 49.0073 230.817 48.9008 231.198 48.6876C231.58 48.4633 231.77 48.1492 231.77 47.7454C231.77 47.3865 231.619 47.1005 231.316 46.8874C231.013 46.663 230.536 46.4723 229.886 46.3153L228.843 46.0461C228.159 45.8778 227.598 45.5918 227.16 45.188C226.723 44.7842 226.504 44.2626 226.504 43.6233C226.504 43.1297 226.65 42.6979 226.942 42.3278C227.244 41.9464 227.643 41.6547 228.136 41.4528C228.63 41.2509 229.162 41.15 229.734 41.15C230.486 41.15 231.153 41.3126 231.737 41.6379C232.331 41.9632 232.752 42.4175 232.999 43.0008L231.754 43.5728C231.372 42.8101 230.694 42.4287 229.718 42.4287C229.247 42.4287 228.832 42.5409 228.473 42.7652C228.125 42.9783 227.951 43.2531 227.951 43.5896C227.951 43.9037 228.074 44.1617 228.321 44.3636C228.568 44.5543 228.938 44.7113 229.432 44.8347L230.677 45.1544C231.518 45.3675 232.152 45.6872 232.578 46.1134C233.004 46.5284 233.217 47.0388 233.217 47.6445C233.217 48.1717 233.066 48.6372 232.763 49.041C232.46 49.4336 232.051 49.7364 231.535 49.9495C231.019 50.1626 230.447 50.2692 229.819 50.2692ZM237.29 37.9532H239.36L243.196 47.8296H243.263L247.099 37.9532H249.169V50H247.755V42.3446L247.823 40.0564H247.755L243.818 50H242.641L238.704 40.0564H238.636L238.704 42.3446V50H237.29V37.9532ZM251.578 39.8376C251.298 39.8376 251.057 39.7367 250.855 39.5348C250.653 39.3329 250.552 39.0917 250.552 38.8113C250.552 38.5309 250.653 38.2953 250.855 38.1047C251.057 37.9027 251.298 37.8018 251.578 37.8018C251.859 37.8018 252.1 37.9027 252.302 38.1047C252.504 38.2953 252.605 38.5309 252.605 38.8113C252.605 39.0917 252.504 39.3329 252.302 39.5348C252.111 39.7367 251.87 39.8376 251.578 39.8376ZM250.872 41.4192H252.285V50H250.872V41.4192ZM253.691 41.4192H255.054V42.6811H255.121C255.357 42.2548 255.733 41.8959 256.249 41.6043C256.765 41.3014 257.314 41.15 257.898 41.15C258.93 41.15 259.715 41.4528 260.253 42.0585C260.803 42.653 261.078 43.4663 261.078 44.4982V50H259.647V44.7169C259.647 43.9205 259.457 43.3429 259.075 42.9839C258.694 42.625 258.172 42.4455 257.511 42.4455C257.051 42.4455 256.636 42.5745 256.266 42.8325C255.907 43.0905 255.626 43.4326 255.424 43.8588C255.222 44.2739 255.121 44.7113 255.121 45.1712V50H253.691V41.4192ZM265.916 50.2692C265.153 50.2692 264.457 50.0729 263.829 49.6803C263.212 49.2877 262.724 48.7493 262.365 48.0651C262.007 47.3697 261.827 46.5845 261.827 45.7096C261.827 44.8459 262.007 44.0663 262.365 43.3709C262.724 42.6755 263.212 42.1315 263.829 41.7389C264.457 41.3463 265.153 41.15 265.916 41.15C266.577 41.15 267.166 41.3014 267.682 41.6043C268.198 41.8959 268.591 42.2605 268.86 42.6979H268.927L268.86 41.5033V37.9532H270.29V50H268.927V48.7381H268.86C268.591 49.1644 268.198 49.5289 267.682 49.8317C267.166 50.1234 266.577 50.2692 265.916 50.2692ZM266.084 48.9737C266.589 48.9737 267.054 48.8391 267.48 48.5699C267.918 48.3007 268.265 47.9193 268.523 47.4258C268.793 46.9322 268.927 46.3602 268.927 45.7096C268.927 45.059 268.793 44.487 268.523 43.9934C268.265 43.4999 267.918 43.1185 267.48 42.8493C267.054 42.5801 266.589 42.4455 266.084 42.4455C265.59 42.4455 265.125 42.5801 264.687 42.8493C264.25 43.1185 263.897 43.5055 263.627 44.0103C263.369 44.5038 263.24 45.0702 263.24 45.7096C263.24 46.349 263.369 46.921 263.627 47.4258C263.897 47.9193 264.25 48.3007 264.687 48.5699C265.125 48.8391 265.59 48.9737 266.084 48.9737ZM274.222 50.2692C273.594 50.2692 273.033 50.1458 272.539 49.899C272.046 49.6523 271.664 49.3158 271.395 48.8895C271.126 48.4521 270.991 47.9586 270.991 47.4089C270.991 46.5004 271.333 45.7937 272.018 45.289C272.702 44.773 273.566 44.515 274.609 44.515C275.125 44.515 275.601 44.5711 276.039 44.6833C276.488 44.7954 276.83 44.9244 277.065 45.0702V44.5487C277.065 43.9093 276.841 43.3989 276.392 43.0176C275.944 42.625 275.377 42.4287 274.693 42.4287C274.211 42.4287 273.768 42.5353 273.364 42.7484C272.96 42.9503 272.64 43.2363 272.405 43.6065L271.328 42.7989C271.664 42.2829 272.124 41.8791 272.708 41.5874C273.302 41.2958 273.958 41.15 274.676 41.15C275.843 41.15 276.757 41.4585 277.419 42.0754C278.092 42.6811 278.428 43.5111 278.428 44.5655V50H277.065V48.7718H276.998C276.751 49.1868 276.381 49.5401 275.887 49.8317C275.394 50.1234 274.839 50.2692 274.222 50.2692ZM274.356 49.0073C274.839 49.0073 275.287 48.8839 275.702 48.6372C276.117 48.3904 276.448 48.0595 276.695 47.6445C276.942 47.2295 277.065 46.7752 277.065 46.2817C276.796 46.1022 276.465 45.9564 276.073 45.8442C275.68 45.732 275.265 45.6759 274.827 45.6759C274.042 45.6759 273.448 45.8386 273.044 46.1639C272.651 46.4892 272.455 46.9098 272.455 47.4258C272.455 47.8969 272.635 48.2782 272.994 48.5699C273.352 48.8615 273.807 49.0073 274.356 49.0073ZM279.576 41.4192H280.939V42.6811H281.007C281.242 42.2548 281.618 41.8959 282.134 41.6043C282.65 41.3014 283.199 41.15 283.783 41.15C284.815 41.15 285.6 41.4528 286.138 42.0585C286.688 42.653 286.963 43.4663 286.963 44.4982V50H285.532V44.7169C285.532 43.9205 285.342 43.3429 284.96 42.9839C284.579 42.625 284.057 42.4455 283.396 42.4455C282.936 42.4455 282.521 42.5745 282.151 42.8325C281.792 43.0905 281.511 43.4326 281.309 43.8588C281.107 44.2739 281.007 44.7113 281.007 45.1712V50H279.576V41.4192ZM290.827 50.2692C290.199 50.2692 289.638 50.1458 289.144 49.899C288.651 49.6523 288.269 49.3158 288 48.8895C287.731 48.4521 287.596 47.9586 287.596 47.4089C287.596 46.5004 287.938 45.7937 288.623 45.289C289.307 44.773 290.171 44.515 291.214 44.515C291.73 44.515 292.206 44.5711 292.644 44.6833C293.093 44.7954 293.435 44.9244 293.67 45.0702V44.5487C293.67 43.9093 293.446 43.3989 292.997 43.0176C292.548 42.625 291.982 42.4287 291.298 42.4287C290.816 42.4287 290.372 42.5353 289.969 42.7484C289.565 42.9503 289.245 43.2363 289.01 43.6065L287.933 42.7989C288.269 42.2829 288.729 41.8791 289.312 41.5874C289.907 41.2958 290.563 41.15 291.281 41.15C292.448 41.15 293.362 41.4585 294.023 42.0754C294.696 42.6811 295.033 43.5111 295.033 44.5655V50H293.67V48.7718H293.603C293.356 49.1868 292.986 49.5401 292.492 49.8317C291.999 50.1234 291.444 50.2692 290.827 50.2692ZM290.961 49.0073C291.444 49.0073 291.892 48.8839 292.307 48.6372C292.722 48.3904 293.053 48.0595 293.3 47.6445C293.547 47.2295 293.67 46.7752 293.67 46.2817C293.401 46.1022 293.07 45.9564 292.677 45.8442C292.285 45.732 291.87 45.6759 291.432 45.6759C290.647 45.6759 290.053 45.8386 289.649 46.1639C289.256 46.4892 289.06 46.9098 289.06 47.4258C289.06 47.8969 289.24 48.2782 289.598 48.5699C289.957 48.8615 290.412 49.0073 290.961 49.0073ZM300.053 50.2692C299.212 50.2692 298.455 50.0673 297.782 49.6635C297.109 49.2597 296.581 48.7101 296.2 48.0146C295.83 47.3192 295.645 46.5509 295.645 45.7096C295.645 44.8683 295.83 44.1 296.2 43.4046C296.581 42.7091 297.109 42.1595 297.782 41.7557C298.455 41.3519 299.212 41.15 300.053 41.15C300.894 41.15 301.651 41.3519 302.324 41.7557C302.997 42.1595 303.519 42.7091 303.889 43.4046C304.271 44.1 304.461 44.8683 304.461 45.7096C304.461 46.5509 304.271 47.3192 303.889 48.0146C303.519 48.7101 302.997 49.2597 302.324 49.6635C301.651 50.0673 300.894 50.2692 300.053 50.2692ZM300.053 48.9737C300.58 48.9737 301.068 48.8447 301.517 48.5867C301.977 48.3175 302.341 47.9361 302.61 47.4426C302.891 46.949 303.031 46.3714 303.031 45.7096C303.031 45.0478 302.891 44.4701 302.61 43.9766C302.341 43.4831 301.977 43.1073 301.517 42.8493C301.068 42.5801 300.58 42.4455 300.053 42.4455C299.526 42.4455 299.032 42.5801 298.572 42.8493C298.113 43.1073 297.742 43.4831 297.462 43.9766C297.193 44.4701 297.058 45.0478 297.058 45.7096C297.058 46.3714 297.193 46.949 297.462 47.4426C297.742 47.9361 298.113 48.3175 298.572 48.5867C299.032 48.8447 299.526 48.9737 300.053 48.9737Z" fill="white"/>
<path fill-rule="evenodd" clip-rule="evenodd" d="M14.8718 17.0059L7.43626 12.7135C6.80436 12.3486 6.10997 12.1093 5.39436 12.002L18.1999 4.60835C20.3697 3.35574 23.1437 4.09965 24.3969 6.26887C25.6495 8.4381 24.9062 11.2127 22.7364 12.4653L14.8718 17.0059ZM38.5747 4.60833L54.505 13.8063H54.5056C56.6754 15.0589 57.4187 17.8329 56.1661 20.0027C55.3255 21.4581 53.8012 22.2716 52.2332 22.2716C51.4633 22.2716 50.6835 22.0753 49.9691 21.6633L34.0382 12.4653C31.8684 11.2127 31.1251 8.43866 32.3777 6.26884C33.2183 4.81346 34.7426 4 36.3106 4C37.0799 4 37.8603 4.19629 38.5747 4.60833ZM6.80551 13.8062L22.7363 23.0036C24.9062 24.2556 25.6495 27.0302 24.3969 29.2C23.5563 30.6554 22.0319 31.4689 20.464 31.4689C19.6941 31.4689 18.9143 31.2732 18.1998 30.8606L2.269 21.6632C0.0991854 20.4106 -0.644128 17.6365 0.608482 15.4667C1.44906 14.0113 2.97341 13.1973 4.54138 13.1973C5.31122 13.1973 6.09108 13.3936 6.80551 13.8062ZM49.3383 22.7562L41.9028 18.4631L34.0382 23.0037C31.8684 24.2563 31.1251 27.0309 32.3777 29.2002C33.2177 30.6556 34.7426 31.469 36.3106 31.469C37.0804 31.469 37.8597 31.2727 38.5747 30.8607L51.3802 23.4676C50.6646 23.3604 49.9702 23.121 49.3377 22.7562H49.3383Z" fill="white"/>
</svg>
