<svg width="430" height="91" viewBox="0 0 430 91" fill="none" xmlns="http://www.w3.org/2000/svg">
<path d="M104.296 44.3493C102.811 44.3493 101.443 43.9927 100.191 43.2796C98.9398 42.5664 97.9428 41.5912 97.2006 40.3541C96.4728 39.1024 96.109 37.7125 96.109 36.1843C96.109 34.6561 96.4728 33.2734 97.2006 32.0363C97.9428 30.7846 98.9398 29.8022 100.191 29.089C101.443 28.3759 102.811 28.0193 104.296 28.0193C105.475 28.0193 106.574 28.2303 107.592 28.6524C108.611 29.0745 109.463 29.6639 110.147 30.4207L108.444 32.1236C107.934 31.556 107.323 31.1194 106.61 30.8137C105.911 30.5081 105.133 30.3553 104.274 30.3553C103.27 30.3553 102.331 30.5954 101.458 31.0757C100.584 31.556 99.8859 32.24 99.3619 33.1279C98.8379 34.0157 98.576 35.0345 98.576 36.1843C98.576 37.3341 98.8379 38.3529 99.3619 39.2407C99.8859 40.1285 100.584 40.8126 101.458 41.2929C102.331 41.7732 103.277 42.0133 104.296 42.0133C105.227 42.0133 106.006 41.8751 106.632 41.5985C107.258 41.322 107.818 40.9509 108.313 40.4851C108.633 40.1649 108.902 39.7647 109.121 39.2844C109.353 38.8041 109.506 38.2801 109.579 37.7125H104.274V35.5293H111.893C111.966 35.9369 112.002 36.3589 112.002 36.7956C112.002 37.7853 111.85 38.7386 111.544 39.6555C111.238 40.5579 110.751 41.3438 110.081 42.0133C108.611 43.5706 106.683 44.3493 104.296 44.3493ZM118.452 44.3493C117.331 44.3493 116.327 44.0946 115.439 43.5852C114.551 43.0612 113.86 42.3481 113.365 41.4457C112.87 40.5433 112.623 39.5391 112.623 38.4329C112.623 37.3268 112.87 36.3226 113.365 35.4202C113.86 34.5178 114.551 33.8119 115.439 33.3025C116.327 32.7786 117.331 32.5166 118.452 32.5166C119.572 32.5166 120.577 32.7786 121.464 33.3025C122.352 33.8265 123.043 34.5396 123.538 35.442C124.033 36.3444 124.281 37.3414 124.281 38.4329C124.281 39.5391 124.033 40.5433 123.538 41.4457C123.043 42.3481 122.352 43.0612 121.464 43.5852C120.577 44.0946 119.572 44.3493 118.452 44.3493ZM118.452 42.1443C119.063 42.1443 119.63 41.9988 120.154 41.7077C120.678 41.402 121.093 40.9727 121.399 40.4196C121.719 39.852 121.879 39.1898 121.879 38.4329C121.879 37.6761 121.719 37.0212 121.399 36.4681C121.093 35.915 120.678 35.493 120.154 35.2019C119.63 34.8962 119.063 34.7434 118.452 34.7434C117.84 34.7434 117.273 34.8962 116.749 35.2019C116.225 35.493 115.803 35.915 115.482 36.4681C115.177 37.0212 115.024 37.6761 115.024 38.4329C115.024 39.1898 115.177 39.852 115.482 40.4196C115.803 40.9727 116.225 41.402 116.749 41.7077C117.273 41.9988 117.84 42.1443 118.452 42.1443ZM130.621 44.3493C129.5 44.3493 128.496 44.0946 127.608 43.5852C126.72 43.0612 126.029 42.3481 125.534 41.4457C125.039 40.5433 124.792 39.5391 124.792 38.4329C124.792 37.3268 125.039 36.3226 125.534 35.4202C126.029 34.5178 126.72 33.8119 127.608 33.3025C128.496 32.7786 129.5 32.5166 130.621 32.5166C131.742 32.5166 132.746 32.7786 133.634 33.3025C134.522 33.8265 135.213 34.5396 135.708 35.442C136.203 36.3444 136.45 37.3414 136.45 38.4329C136.45 39.5391 136.203 40.5433 135.708 41.4457C135.213 42.3481 134.522 43.0612 133.634 43.5852C132.746 44.0946 131.742 44.3493 130.621 44.3493ZM130.621 42.1443C131.232 42.1443 131.8 41.9988 132.324 41.7077C132.848 41.402 133.263 40.9727 133.568 40.4196C133.888 39.852 134.049 39.1898 134.049 38.4329C134.049 37.6761 133.888 37.0212 133.568 36.4681C133.263 35.915 132.848 35.493 132.324 35.2019C131.8 34.8962 131.232 34.7434 130.621 34.7434C130.01 34.7434 129.442 34.8962 128.918 35.2019C128.394 35.493 127.972 35.915 127.652 36.4681C127.346 37.0212 127.193 37.6761 127.193 38.4329C127.193 39.1898 127.346 39.852 127.652 40.4196C127.972 40.9727 128.394 41.402 128.918 41.7077C129.442 41.9988 130.01 42.1443 130.621 42.1443ZM142.594 49.0649C141.226 49.0649 140.091 48.752 139.188 48.1262C138.3 47.5003 137.704 46.7581 137.398 45.8993L139.647 44.9606C139.88 45.5428 140.251 46.0085 140.76 46.3578C141.284 46.7217 141.895 46.9036 142.594 46.9036C143.613 46.9036 144.406 46.598 144.974 45.9867C145.556 45.3899 145.847 44.5458 145.847 43.4542V42.4281H145.716C145.352 42.9521 144.864 43.3669 144.253 43.6725C143.656 43.9636 142.965 44.1092 142.179 44.1092C141.248 44.1092 140.382 43.869 139.581 43.3887C138.781 42.9084 138.14 42.2316 137.66 41.3584C137.194 40.4706 136.961 39.459 136.961 38.3238C136.961 37.1885 137.194 36.1843 137.66 35.311C138.14 34.4232 138.781 33.7391 139.581 33.2589C140.382 32.764 141.248 32.5166 142.179 32.5166C142.951 32.5166 143.642 32.6694 144.253 32.975C144.864 33.2807 145.352 33.6955 145.716 34.2194H145.847V32.8659H148.139V43.3887C148.139 44.5967 147.906 45.6228 147.441 46.467C146.975 47.3257 146.32 47.9734 145.476 48.41C144.646 48.8466 143.686 49.0649 142.594 49.0649ZM142.616 41.926C143.198 41.926 143.736 41.7877 144.231 41.5112C144.726 41.2201 145.119 40.8053 145.41 40.2668C145.701 39.7137 145.847 39.0661 145.847 38.3238C145.847 37.1885 145.534 36.308 144.908 35.6822C144.297 35.0418 143.533 34.7216 142.616 34.7216C142.019 34.7216 141.473 34.8671 140.978 35.1582C140.484 35.4347 140.091 35.8423 139.799 36.3808C139.508 36.9193 139.363 37.567 139.363 38.3238C139.363 39.0806 139.508 39.7283 139.799 40.2668C140.091 40.8053 140.484 41.2201 140.978 41.5112C141.473 41.7877 142.019 41.926 142.616 41.926ZM149.87 28.3686H152.271V44H149.87V28.3686ZM158.982 44.3493C157.89 44.3493 156.908 44.0946 156.035 43.5852C155.176 43.0758 154.499 42.3772 154.004 41.4894C153.524 40.587 153.284 39.5755 153.284 38.4548C153.284 37.3923 153.517 36.4099 153.983 35.5075C154.463 34.5906 155.125 33.8629 155.969 33.3243C156.813 32.7858 157.774 32.5166 158.851 32.5166C159.972 32.5166 160.94 32.764 161.755 33.2589C162.584 33.7537 163.21 34.4305 163.632 35.2892C164.069 36.1479 164.287 37.1158 164.287 38.1928C164.287 38.3966 164.265 38.6513 164.222 38.9569H155.685C155.773 39.9903 156.137 40.7908 156.777 41.3584C157.432 41.9114 158.189 42.188 159.047 42.188C159.731 42.188 160.321 42.0352 160.816 41.7295C161.325 41.4093 161.733 40.98 162.038 40.4414L164.069 41.402C163.545 42.319 162.861 43.0394 162.017 43.5634C161.172 44.0873 160.161 44.3493 158.982 44.3493ZM161.842 37.123C161.813 36.7301 161.689 36.3444 161.471 35.966C161.252 35.573 160.918 35.2455 160.466 34.9835C160.03 34.7216 159.491 34.5906 158.851 34.5906C158.08 34.5906 157.425 34.8235 156.886 35.2892C156.362 35.7404 155.998 36.3517 155.795 37.123H161.842ZM169.801 28.3686H174.8C176.416 28.3686 177.827 28.696 179.035 29.351C180.243 30.0059 181.168 30.9301 181.808 32.1236C182.463 33.3025 182.79 34.6561 182.79 36.1843C182.79 37.7125 182.463 39.0733 181.808 40.2668C181.168 41.4457 180.243 42.3626 179.035 43.0176C177.827 43.6725 176.416 44 174.8 44H169.801V28.3686ZM174.756 41.664C176.503 41.664 177.864 41.1837 178.839 40.2231C179.829 39.248 180.323 37.9017 180.323 36.1843C180.323 34.4814 179.829 33.1424 178.839 32.1673C177.864 31.1921 176.503 30.7046 174.756 30.7046H172.246V41.664H174.756ZM188.86 44.3493C187.768 44.3493 186.786 44.0946 185.912 43.5852C185.054 43.0758 184.377 42.3772 183.882 41.4894C183.402 40.587 183.162 39.5755 183.162 38.4548C183.162 37.3923 183.395 36.4099 183.86 35.5075C184.341 34.5906 185.003 33.8629 185.847 33.3243C186.691 32.7858 187.652 32.5166 188.729 32.5166C189.849 32.5166 190.817 32.764 191.632 33.2589C192.462 33.7537 193.088 34.4305 193.51 35.2892C193.946 36.1479 194.165 37.1158 194.165 38.1928C194.165 38.3966 194.143 38.6513 194.099 38.9569H185.563C185.65 39.9903 186.014 40.7908 186.655 41.3584C187.31 41.9114 188.066 42.188 188.925 42.188C189.609 42.188 190.199 42.0352 190.694 41.7295C191.203 41.4093 191.61 40.98 191.916 40.4414L193.946 41.402C193.422 42.319 192.738 43.0394 191.894 43.5634C191.05 44.0873 190.039 44.3493 188.86 44.3493ZM191.72 37.123C191.691 36.7301 191.567 36.3444 191.348 35.966C191.13 35.573 190.795 35.2455 190.344 34.9835C189.908 34.7216 189.369 34.5906 188.729 34.5906C187.957 34.5906 187.302 34.8235 186.764 35.2892C186.24 35.7404 185.876 36.3517 185.672 37.123H191.72ZM193.802 32.8659H196.488L199.566 40.8999H199.653L202.797 32.8659H205.417L200.789 44H198.387L193.802 32.8659ZM210.64 44.3493C209.549 44.3493 208.566 44.0946 207.693 43.5852C206.834 43.0758 206.157 42.3772 205.663 41.4894C205.182 40.587 204.942 39.5755 204.942 38.4548C204.942 37.3923 205.175 36.4099 205.641 35.5075C206.121 34.5906 206.783 33.8629 207.627 33.3243C208.472 32.7858 209.432 32.5166 210.509 32.5166C211.63 32.5166 212.598 32.764 213.413 33.2589C214.242 33.7537 214.868 34.4305 215.29 35.2892C215.727 36.1479 215.945 37.1158 215.945 38.1928C215.945 38.3966 215.923 38.6513 215.88 38.9569H207.344C207.431 39.9903 207.795 40.7908 208.435 41.3584C209.09 41.9114 209.847 42.188 210.706 42.188C211.39 42.188 211.979 42.0352 212.474 41.7295C212.983 41.4093 213.391 40.98 213.697 40.4414L215.727 41.402C215.203 42.319 214.519 43.0394 213.675 43.5634C212.831 44.0873 211.819 44.3493 210.64 44.3493ZM213.5 37.123C213.471 36.7301 213.347 36.3444 213.129 35.966C212.911 35.573 212.576 35.2455 212.125 34.9835C211.688 34.7216 211.15 34.5906 210.509 34.5906C209.738 34.5906 209.083 34.8235 208.544 35.2892C208.02 35.7404 207.656 36.3517 207.453 37.123H213.5ZM217.041 28.3686H219.442V44H217.041V28.3686ZM226.283 44.3493C225.163 44.3493 224.159 44.0946 223.271 43.5852C222.383 43.0612 221.692 42.3481 221.197 41.4457C220.702 40.5433 220.454 39.5391 220.454 38.4329C220.454 37.3268 220.702 36.3226 221.197 35.4202C221.692 34.5178 222.383 33.8119 223.271 33.3025C224.159 32.7786 225.163 32.5166 226.283 32.5166C227.404 32.5166 228.408 32.7786 229.296 33.3025C230.184 33.8265 230.875 34.5396 231.37 35.442C231.865 36.3444 232.113 37.3414 232.113 38.4329C232.113 39.5391 231.865 40.5433 231.37 41.4457C230.875 42.3481 230.184 43.0612 229.296 43.5852C228.408 44.0946 227.404 44.3493 226.283 44.3493ZM226.283 42.1443C226.895 42.1443 227.462 41.9988 227.986 41.7077C228.51 41.402 228.925 40.9727 229.231 40.4196C229.551 39.852 229.711 39.1898 229.711 38.4329C229.711 37.6761 229.551 37.0212 229.231 36.4681C228.925 35.915 228.51 35.493 227.986 35.2019C227.462 34.8962 226.895 34.7434 226.283 34.7434C225.672 34.7434 225.105 34.8962 224.581 35.2019C224.057 35.493 223.635 35.915 223.314 36.4681C223.009 37.0212 222.856 37.6761 222.856 38.4329C222.856 39.1898 223.009 39.852 223.314 40.4196C223.635 40.9727 224.057 41.402 224.581 41.7077C225.105 41.9988 225.672 42.1443 226.283 42.1443ZM233.041 32.8659H235.334V34.3286H235.443C235.763 33.8192 236.236 33.3898 236.862 33.0405C237.488 32.6912 238.193 32.5166 238.979 32.5166C239.984 32.5166 240.893 32.7713 241.708 33.2807C242.523 33.7901 243.164 34.496 243.63 35.3983C244.11 36.2862 244.35 37.2977 244.35 38.4329C244.35 39.5682 244.11 40.587 243.63 41.4894C243.164 42.3772 242.523 43.0758 241.708 43.5852C240.893 44.0946 239.984 44.3493 238.979 44.3493C238.193 44.3493 237.488 44.1747 236.862 43.8253C236.236 43.476 235.763 43.054 235.443 42.5591H235.334L235.443 44.1092V48.7156H233.041V32.8659ZM238.63 42.1443C239.212 42.1443 239.758 41.9915 240.267 41.6859C240.777 41.3802 241.184 40.9436 241.49 40.376C241.796 39.8083 241.948 39.1607 241.948 38.4329C241.948 37.7052 241.796 37.0648 241.49 36.5118C241.184 35.9441 240.777 35.5075 240.267 35.2019C239.758 34.8962 239.212 34.7434 238.63 34.7434C238.048 34.7434 237.502 34.8962 236.993 35.2019C236.498 35.5075 236.098 35.9441 235.792 36.5118C235.486 37.0648 235.334 37.7052 235.334 38.4329C235.334 39.1607 235.486 39.8083 235.792 40.376C236.098 40.9436 236.498 41.3802 236.993 41.6859C237.502 41.9915 238.048 42.1443 238.63 42.1443ZM250.534 44.3493C249.442 44.3493 248.46 44.0946 247.587 43.5852C246.728 43.0758 246.051 42.3772 245.556 41.4894C245.076 40.587 244.836 39.5755 244.836 38.4548C244.836 37.3923 245.069 36.4099 245.535 35.5075C246.015 34.5906 246.677 33.8629 247.521 33.3243C248.365 32.7858 249.326 32.5166 250.403 32.5166C251.524 32.5166 252.492 32.764 253.307 33.2589C254.136 33.7537 254.762 34.4305 255.184 35.2892C255.621 36.1479 255.839 37.1158 255.839 38.1928C255.839 38.3966 255.817 38.6513 255.774 38.9569H247.237C247.325 39.9903 247.689 40.7908 248.329 41.3584C248.984 41.9114 249.741 42.188 250.599 42.188C251.283 42.188 251.873 42.0352 252.368 41.7295C252.877 41.4093 253.285 40.98 253.59 40.4414L255.621 41.402C255.097 42.319 254.413 43.0394 253.569 43.5634C252.724 44.0873 251.713 44.3493 250.534 44.3493ZM253.394 37.123C253.365 36.7301 253.241 36.3444 253.023 35.966C252.804 35.573 252.47 35.2455 252.018 34.9835C251.582 34.7216 251.043 34.5906 250.403 34.5906C249.632 34.5906 248.977 34.8235 248.438 35.2892C247.914 35.7404 247.55 36.3517 247.347 37.123H253.394ZM256.934 32.8659H259.227V34.5033H259.336C259.583 33.9356 260.013 33.4699 260.624 33.106C261.235 32.7276 261.883 32.5384 262.567 32.5384C263.105 32.5384 263.557 32.6112 263.92 32.7567V35.2455C263.28 35.0127 262.705 34.8962 262.196 34.8962C261.643 34.8962 261.148 35.0418 260.711 35.3329C260.289 35.6239 259.954 36.0169 259.707 36.5118C259.46 36.9921 259.336 37.5233 259.336 38.1055V44H256.934V32.8659ZM272.946 44.3493C271.65 44.3493 270.486 43.9709 269.453 43.2141C268.419 42.4572 267.706 41.3948 267.313 40.0266L269.627 39.0879C269.86 39.9466 270.268 40.6525 270.85 41.2056C271.447 41.7441 272.16 42.0133 272.989 42.0133C273.761 42.0133 274.416 41.8168 274.954 41.4239C275.493 41.0163 275.762 40.4633 275.762 39.7647C275.762 39.1243 275.522 38.6003 275.041 38.1928C274.576 37.7707 273.753 37.3486 272.574 36.9266L271.592 36.5773C270.544 36.2134 269.664 35.6894 268.95 35.0054C268.237 34.3213 267.881 33.419 267.881 32.2983C267.881 31.5269 268.092 30.8137 268.514 30.1588C268.936 29.5038 269.518 28.9871 270.26 28.6087C271.017 28.2158 271.869 28.0193 272.815 28.0193C274.183 28.0193 275.274 28.354 276.089 29.0235C276.904 29.6785 277.45 30.4207 277.727 31.2503L275.522 32.1891C275.362 31.6943 275.056 31.2576 274.605 30.8792C274.154 30.5008 273.571 30.3116 272.858 30.3116C272.145 30.3116 271.541 30.4935 271.046 30.8574C270.566 31.2212 270.326 31.687 270.326 32.2546C270.326 32.7931 270.544 33.237 270.981 33.5863C271.417 33.9356 272.101 34.2704 273.033 34.5906L274.015 34.9181C275.354 35.3838 276.388 35.9951 277.115 36.7519C277.858 37.4942 278.229 38.4912 278.229 39.7428C278.229 40.7616 277.967 41.6204 277.443 42.319C276.919 43.003 276.249 43.5124 275.434 43.8472C274.634 44.1819 273.804 44.3493 272.946 44.3493ZM283.55 44.1747C283.056 44.1747 282.59 44.0946 282.153 43.9345C281.717 43.7744 281.36 43.5634 281.084 43.3014C280.458 42.6755 280.145 41.8241 280.145 40.7471V34.9835H278.202V32.8659H280.145V29.7221H282.546V32.8659H285.253V34.9835H282.546V40.2231C282.546 40.8199 282.663 41.2419 282.896 41.4894C283.114 41.7805 283.492 41.926 284.031 41.926C284.278 41.926 284.497 41.8969 284.686 41.8387C284.875 41.7659 285.079 41.6567 285.297 41.5112V43.8472C284.817 44.0655 284.235 44.1747 283.55 44.1747ZM290.506 44.3493C289.153 44.3493 288.119 43.9491 287.406 43.1486C286.707 42.3335 286.358 41.2056 286.358 39.7647V32.8659H288.76V39.4372C288.76 40.3396 288.971 41.0163 289.393 41.4675C289.829 41.9187 290.397 42.1443 291.096 42.1443C291.663 42.1443 292.165 41.9988 292.602 41.7077C293.039 41.402 293.373 41.0018 293.606 40.5069C293.839 40.0121 293.955 39.4809 293.955 38.9132V32.8659H296.357V44H294.086V42.5591H293.955C293.65 43.0831 293.177 43.5124 292.536 43.8472C291.896 44.1819 291.219 44.3493 290.506 44.3493ZM302.713 44.3493C301.709 44.3493 300.799 44.0946 299.984 43.5852C299.169 43.0758 298.521 42.3772 298.041 41.4894C297.575 40.587 297.343 39.5682 297.343 38.4329C297.343 37.2977 297.575 36.2862 298.041 35.3983C298.521 34.496 299.169 33.7901 299.984 33.2807C300.799 32.7713 301.709 32.5166 302.713 32.5166C303.499 32.5166 304.205 32.6912 304.831 33.0405C305.457 33.3898 305.93 33.8192 306.25 34.3286H306.359L306.25 32.7567V28.3686H308.651V44H306.359V42.5591H306.25C305.93 43.054 305.457 43.476 304.831 43.8253C304.205 44.1747 303.499 44.3493 302.713 44.3493ZM303.062 42.1443C303.645 42.1443 304.183 41.9915 304.678 41.6859C305.187 41.3802 305.595 40.9436 305.901 40.376C306.206 39.8083 306.359 39.1607 306.359 38.4329C306.359 37.7052 306.206 37.0648 305.901 36.5118C305.595 35.9441 305.187 35.5075 304.678 35.2019C304.183 34.8962 303.645 34.7434 303.062 34.7434C302.48 34.7434 301.935 34.8962 301.425 35.2019C300.916 35.5075 300.508 35.9441 300.203 36.5118C299.897 37.0648 299.744 37.7052 299.744 38.4329C299.744 39.1607 299.897 39.8083 300.203 40.376C300.508 40.9436 300.916 41.3802 301.425 41.6859C301.935 41.9915 302.48 42.1443 303.062 42.1443ZM315.338 44.3493C314.246 44.3493 313.264 44.0946 312.391 43.5852C311.532 43.0758 310.855 42.3772 310.36 41.4894C309.88 40.587 309.64 39.5755 309.64 38.4548C309.64 37.3923 309.873 36.4099 310.339 35.5075C310.819 34.5906 311.481 33.8629 312.325 33.3243C313.169 32.7858 314.13 32.5166 315.207 32.5166C316.328 32.5166 317.296 32.764 318.111 33.2589C318.94 33.7537 319.566 34.4305 319.988 35.2892C320.425 36.1479 320.643 37.1158 320.643 38.1928C320.643 38.3966 320.621 38.6513 320.578 38.9569H312.041C312.129 39.9903 312.493 40.7908 313.133 41.3584C313.788 41.9114 314.545 42.188 315.403 42.188C316.088 42.188 316.677 42.0352 317.172 41.7295C317.681 41.4093 318.089 40.98 318.394 40.4414L320.425 41.402C319.901 42.319 319.217 43.0394 318.373 43.5634C317.528 44.0873 316.517 44.3493 315.338 44.3493ZM318.198 37.123C318.169 36.7301 318.045 36.3444 317.827 35.966C317.608 35.573 317.274 35.2455 316.823 34.9835C316.386 34.7216 315.847 34.5906 315.207 34.5906C314.436 34.5906 313.781 34.8235 313.242 35.2892C312.718 35.7404 312.354 36.3517 312.151 37.123H318.198ZM321.738 32.8659H324.031V34.3286H324.14C324.46 33.8046 324.933 33.3753 325.559 33.0405C326.199 32.6912 326.876 32.5166 327.589 32.5166C328.943 32.5166 329.969 32.9168 330.668 33.7173C331.381 34.5033 331.737 35.5803 331.737 36.9484V44H329.336V37.2759C329.336 36.4026 329.117 35.7622 328.681 35.3547C328.259 34.9472 327.669 34.7434 326.912 34.7434C326.374 34.7434 325.894 34.8962 325.472 35.2019C325.05 35.493 324.722 35.8859 324.489 36.3808C324.256 36.8756 324.14 37.4069 324.14 37.9745V44H321.738V32.8659ZM337.362 44.1747C336.867 44.1747 336.401 44.0946 335.965 43.9345C335.528 43.7744 335.172 43.5634 334.895 43.3014C334.269 42.6755 333.956 41.8241 333.956 40.7471V34.9835H332.013V32.8659H333.956V29.7221H336.358V32.8659H339.065V34.9835H336.358V40.2231C336.358 40.8199 336.474 41.2419 336.707 41.4894C336.925 41.7805 337.304 41.926 337.842 41.926C338.09 41.926 338.308 41.8969 338.497 41.8387C338.686 41.7659 338.89 41.6567 339.108 41.5112V43.8472C338.628 44.0655 338.046 44.1747 337.362 44.1747ZM351.628 44.3493C350.114 44.3493 348.731 43.9927 347.48 43.2796C346.228 42.5664 345.246 41.584 344.532 40.3323C343.819 39.0806 343.463 37.6979 343.463 36.1843C343.463 34.6706 343.819 33.288 344.532 32.0363C345.246 30.7846 346.228 29.8022 347.48 29.089C348.731 28.3759 350.114 28.0193 351.628 28.0193C352.807 28.0193 353.876 28.2376 354.837 28.6742C355.812 29.1108 356.671 29.744 357.413 30.5736L355.667 32.2546C355.128 31.6142 354.531 31.1412 353.876 30.8355C353.221 30.5153 352.472 30.3553 351.628 30.3553C350.58 30.3553 349.619 30.5954 348.746 31.0757C347.887 31.556 347.203 32.24 346.694 33.1279C346.184 34.0011 345.93 35.0199 345.93 36.1843C345.93 37.3486 346.184 38.3747 346.694 39.2625C347.203 40.1358 347.887 40.8126 348.746 41.2929C349.619 41.7732 350.58 42.0133 351.628 42.0133C353.374 42.0133 354.859 41.2856 356.081 39.8302L357.85 41.533C357.093 42.4208 356.183 43.1122 355.121 43.607C354.058 44.1019 352.894 44.3493 351.628 44.3493ZM358.882 28.3686H361.283V44H358.882V28.3686ZM367.074 44.3493C365.721 44.3493 364.687 43.9491 363.974 43.1486C363.276 42.3335 362.926 41.2056 362.926 39.7647V32.8659H365.328V39.4372C365.328 40.3396 365.539 41.0163 365.961 41.4675C366.398 41.9187 366.965 42.1443 367.664 42.1443C368.231 42.1443 368.734 41.9988 369.17 41.7077C369.607 41.402 369.942 41.0018 370.175 40.5069C370.407 40.0121 370.524 39.4809 370.524 38.9132V32.8659H372.925V44H370.655V42.5591H370.524C370.218 43.0831 369.745 43.5124 369.105 43.8472C368.464 44.1819 367.788 44.3493 367.074 44.3493ZM380.567 44.3493C379.781 44.3493 379.075 44.1747 378.449 43.8253C377.824 43.476 377.351 43.054 377.03 42.5591H376.921V44H374.629V28.3686H377.03V32.7567L376.921 34.3286H377.03C377.351 33.8192 377.824 33.3898 378.449 33.0405C379.075 32.6912 379.781 32.5166 380.567 32.5166C381.571 32.5166 382.481 32.7713 383.296 33.2807C384.111 33.7901 384.751 34.496 385.217 35.3983C385.697 36.2862 385.938 37.2977 385.938 38.4329C385.938 39.5682 385.697 40.587 385.217 41.4894C384.751 42.3772 384.111 43.0758 383.296 43.5852C382.481 44.0946 381.571 44.3493 380.567 44.3493ZM380.218 42.1443C380.8 42.1443 381.346 41.9915 381.855 41.6859C382.365 41.3802 382.772 40.9436 383.078 40.376C383.383 39.8083 383.536 39.1607 383.536 38.4329C383.536 37.7052 383.383 37.0648 383.078 36.5118C382.772 35.9441 382.365 35.5075 381.855 35.2019C381.346 34.8962 380.8 34.7434 380.218 34.7434C379.636 34.7434 379.09 34.8962 378.58 35.2019C378.086 35.5075 377.685 35.9441 377.38 36.5118C377.074 37.0648 376.921 37.7052 376.921 38.4329C376.921 39.1607 377.074 39.8083 377.38 40.376C377.685 40.9436 378.086 41.3802 378.58 41.6859C379.09 41.9915 379.636 42.1443 380.218 42.1443ZM390.987 44.3493C389.706 44.3493 388.658 44.0728 387.843 43.5197C387.028 42.9521 386.453 42.2316 386.118 41.3584L388.258 40.4196C388.52 41.0018 388.884 41.4457 389.349 41.7513C389.83 42.057 390.376 42.2098 390.987 42.2098C391.584 42.2098 392.086 42.1079 392.493 41.9042C392.901 41.6859 393.105 41.3657 393.105 40.9436C393.105 40.5361 392.93 40.2159 392.581 39.983C392.231 39.7501 391.693 39.5464 390.965 39.3717L389.633 39.0442C388.745 38.8259 388.01 38.4402 387.428 37.8872C386.846 37.3341 386.555 36.6355 386.555 35.7913C386.555 35.1364 386.744 34.5615 387.123 34.0666C387.516 33.5718 388.04 33.1934 388.695 32.9314C389.349 32.6548 390.063 32.5166 390.834 32.5166C391.867 32.5166 392.777 32.7276 393.563 33.1497C394.349 33.5572 394.917 34.1539 395.266 34.9399L393.17 35.8568C392.748 34.9981 391.977 34.5687 390.856 34.5687C390.317 34.5687 389.866 34.6779 389.502 34.8962C389.138 35.1145 388.957 35.3983 388.957 35.7477C388.957 36.0824 389.095 36.3589 389.371 36.5773C389.648 36.781 390.055 36.9557 390.594 37.1012L392.231 37.516C393.323 37.7925 394.145 38.2146 394.698 38.7822C395.266 39.3353 395.55 40.0194 395.55 40.8344C395.55 41.533 395.346 42.1516 394.938 42.6901C394.545 43.2141 394 43.6216 393.301 43.9127C392.602 44.2038 391.831 44.3493 390.987 44.3493ZM96.4507 56.9532H98.5202L102.356 66.8296H102.424L106.26 56.9532H108.329V69H106.916V61.3446L106.983 59.0564H106.916L102.979 69H101.801L97.8641 59.0564H97.7968L97.8641 61.3446V69H96.4507V56.9532ZM112.394 69.2692C111.765 69.2692 111.205 69.1458 110.711 68.899C110.218 68.6523 109.836 68.3158 109.567 67.8895C109.298 67.4521 109.163 66.9586 109.163 66.4089C109.163 65.5004 109.505 64.7937 110.189 64.289C110.874 63.773 111.737 63.515 112.781 63.515C113.297 63.515 113.773 63.5711 114.211 63.6833C114.659 63.7954 115.001 63.9244 115.237 64.0702V63.5487C115.237 62.9093 115.013 62.3989 114.564 62.0176C114.115 61.625 113.549 61.4287 112.865 61.4287C112.382 61.4287 111.939 61.5353 111.536 61.7484C111.132 61.9503 110.812 62.2363 110.576 62.6065L109.5 61.7989C109.836 61.2829 110.296 60.8791 110.879 60.5874C111.474 60.2958 112.13 60.15 112.848 60.15C114.014 60.15 114.929 60.4585 115.59 61.0754C116.263 61.6811 116.6 62.5111 116.6 63.5655V69H115.237V67.7718H115.17C114.923 68.1868 114.553 68.5401 114.059 68.8317C113.566 69.1234 113.011 69.2692 112.394 69.2692ZM112.528 68.0073C113.011 68.0073 113.459 67.8839 113.874 67.6372C114.289 67.3904 114.62 67.0595 114.867 66.6445C115.114 66.2295 115.237 65.7752 115.237 65.2817C114.968 65.1022 114.637 64.9564 114.244 64.8442C113.852 64.732 113.437 64.6759 112.999 64.6759C112.214 64.6759 111.62 64.8386 111.216 65.1639C110.823 65.4892 110.627 65.9098 110.627 66.4258C110.627 66.8969 110.806 67.2782 111.165 67.5699C111.524 67.8615 111.979 68.0073 112.528 68.0073ZM117.681 60.4192H119.044V61.6979H119.111C119.369 61.2605 119.756 60.8959 120.272 60.6043C120.799 60.3014 121.388 60.15 122.039 60.15C122.801 60.15 123.497 60.3463 124.125 60.7389C124.753 61.1315 125.247 61.6755 125.605 62.3709C125.964 63.0663 126.144 63.8459 126.144 64.7096C126.144 65.5845 125.964 66.3697 125.605 67.0651C125.247 67.7493 124.753 68.2877 124.125 68.6803C123.497 69.0729 122.801 69.2692 122.039 69.2692C121.388 69.2692 120.799 69.1234 120.272 68.8317C119.756 68.5289 119.369 68.1644 119.111 67.7381H119.044L119.111 68.9159V72.6342H117.681V60.4192ZM121.87 67.9737C122.364 67.9737 122.829 67.8391 123.267 67.5699C123.704 67.3007 124.052 66.9193 124.31 66.4258C124.579 65.921 124.714 65.349 124.714 64.7096C124.714 64.0702 124.579 63.5038 124.31 63.0103C124.052 62.5055 123.704 62.1185 123.267 61.8493C122.829 61.5801 122.364 61.4455 121.87 61.4455C121.377 61.4455 120.911 61.5801 120.474 61.8493C120.036 62.1185 119.689 62.4999 119.431 62.9934C119.173 63.487 119.044 64.059 119.044 64.7096C119.044 65.3602 119.173 65.9322 119.431 66.4258C119.689 66.9193 120.036 67.3007 120.474 67.5699C120.911 67.8391 121.377 67.9737 121.87 67.9737ZM129.993 69.2692C128.961 69.2692 128.17 68.9663 127.621 68.3606C127.082 67.7549 126.813 66.9081 126.813 65.8201V60.4192H128.243V65.6013C128.243 66.4202 128.428 67.0202 128.798 67.4016C129.169 67.783 129.668 67.9737 130.296 67.9737C130.778 67.9737 131.204 67.8447 131.575 67.5867C131.956 67.3287 132.248 66.9922 132.45 66.5772C132.663 66.1622 132.769 65.7247 132.769 65.2648V60.4192H134.199V69H132.836V67.7549H132.769C132.534 68.1812 132.158 68.5401 131.642 68.8317C131.126 69.1234 130.576 69.2692 129.993 69.2692ZM130.75 56.6167H132.315L131.12 58.7535H129.875L130.75 56.6167ZM138.131 69.2692C137.503 69.2692 136.942 69.1458 136.448 68.899C135.955 68.6523 135.573 68.3158 135.304 67.8895C135.035 67.4521 134.9 66.9586 134.9 66.4089C134.9 65.5004 135.242 64.7937 135.927 64.289C136.611 63.773 137.475 63.515 138.518 63.515C139.034 63.515 139.51 63.5711 139.948 63.6833C140.397 63.7954 140.739 63.9244 140.974 64.0702V63.5487C140.974 62.9093 140.75 62.3989 140.301 62.0176C139.853 61.625 139.286 61.4287 138.602 61.4287C138.12 61.4287 137.676 61.5353 137.273 61.7484C136.869 61.9503 136.549 62.2363 136.314 62.6065L135.237 61.7989C135.573 61.2829 136.033 60.8791 136.616 60.5874C137.211 60.2958 137.867 60.15 138.585 60.15C139.752 60.15 140.666 60.4585 141.328 61.0754C142.001 61.6811 142.337 62.5111 142.337 63.5655V69H140.974V67.7718H140.907C140.66 68.1868 140.29 68.5401 139.796 68.8317C139.303 69.1234 138.748 69.2692 138.131 69.2692ZM138.265 68.0073C138.748 68.0073 139.196 67.8839 139.611 67.6372C140.026 67.3904 140.357 67.0595 140.604 66.6445C140.851 66.2295 140.974 65.7752 140.974 65.2817C140.705 65.1022 140.374 64.9564 139.981 64.8442C139.589 64.732 139.174 64.6759 138.736 64.6759C137.951 64.6759 137.357 64.8386 136.953 65.1639C136.56 65.4892 136.364 65.9098 136.364 66.4258C136.364 66.8969 136.544 67.2782 136.903 67.5699C137.261 67.8615 137.716 68.0073 138.265 68.0073ZM146.841 56.9532H148.91L152.746 66.8296H152.814L156.65 56.9532H158.719V69H157.306V61.3446L157.373 59.0564H157.306L153.369 69H152.191L148.254 59.0564H148.187L148.254 61.3446V69H146.841V56.9532ZM162.783 69.2692C162.155 69.2692 161.594 69.1458 161.101 68.899C160.607 68.6523 160.226 68.3158 159.957 67.8895C159.688 67.4521 159.553 66.9586 159.553 66.4089C159.553 65.5004 159.895 64.7937 160.579 64.289C161.264 63.773 162.127 63.515 163.17 63.515C163.686 63.515 164.163 63.5711 164.601 63.6833C165.049 63.7954 165.391 63.9244 165.627 64.0702V63.5487C165.627 62.9093 165.403 62.3989 164.954 62.0176C164.505 61.625 163.939 61.4287 163.255 61.4287C162.772 61.4287 162.329 61.5353 161.925 61.7484C161.522 61.9503 161.202 62.2363 160.966 62.6065L159.89 61.7989C160.226 61.2829 160.686 60.8791 161.269 60.5874C161.864 60.2958 162.52 60.15 163.238 60.15C164.404 60.15 165.318 60.4585 165.98 61.0754C166.653 61.6811 166.99 62.5111 166.99 63.5655V69H165.627V67.7718H165.56C165.313 68.1868 164.943 68.5401 164.449 68.8317C163.956 69.1234 163.4 69.2692 162.783 69.2692ZM162.918 68.0073C163.4 68.0073 163.849 67.8839 164.264 67.6372C164.679 67.3904 165.01 67.0595 165.257 66.6445C165.504 66.2295 165.627 65.7752 165.627 65.2817C165.358 65.1022 165.027 64.9564 164.634 64.8442C164.242 64.732 163.827 64.6759 163.389 64.6759C162.604 64.6759 162.01 64.8386 161.606 65.1639C161.213 65.4892 161.017 65.9098 161.017 66.4258C161.017 66.8969 161.196 67.2782 161.555 67.5699C161.914 67.8615 162.368 68.0073 162.918 68.0073ZM168.138 56.9532H169.568V69H168.138V56.9532ZM173.506 69.2692C172.878 69.2692 172.317 69.1458 171.824 68.899C171.33 68.6523 170.949 68.3158 170.68 67.8895C170.41 67.4521 170.276 66.9586 170.276 66.4089C170.276 65.5004 170.618 64.7937 171.302 64.289C171.986 63.773 172.85 63.515 173.893 63.515C174.409 63.515 174.886 63.5711 175.323 63.6833C175.772 63.7954 176.114 63.9244 176.35 64.0702V63.5487C176.35 62.9093 176.125 62.3989 175.677 62.0176C175.228 61.625 174.662 61.4287 173.977 61.4287C173.495 61.4287 173.052 61.5353 172.648 61.7484C172.244 61.9503 171.925 62.2363 171.689 62.6065L170.612 61.7989C170.949 61.2829 171.409 60.8791 171.992 60.5874C172.586 60.2958 173.243 60.15 173.96 60.15C175.127 60.15 176.041 60.4585 176.703 61.0754C177.376 61.6811 177.712 62.5111 177.712 63.5655V69H176.35V67.7718H176.282C176.036 68.1868 175.665 68.5401 175.172 68.8317C174.678 69.1234 174.123 69.2692 173.506 69.2692ZM173.641 68.0073C174.123 68.0073 174.572 67.8839 174.987 67.6372C175.402 67.3904 175.733 67.0595 175.979 66.6445C176.226 66.2295 176.35 65.7752 176.35 65.2817C176.08 65.1022 175.75 64.9564 175.357 64.8442C174.964 64.732 174.549 64.6759 174.112 64.6759C173.327 64.6759 172.732 64.8386 172.328 65.1639C171.936 65.4892 171.74 65.9098 171.74 66.4258C171.74 66.8969 171.919 67.2782 172.278 67.5699C172.637 67.8615 173.091 68.0073 173.641 68.0073ZM181.321 68.4616L177.771 60.4192H179.319L182.011 66.7959H182.045L184.636 60.4192H186.184L180.884 72.6342H179.403L181.321 68.4616ZM188.846 69.2692C188.218 69.2692 187.657 69.1458 187.163 68.899C186.67 68.6523 186.289 68.3158 186.019 67.8895C185.75 67.4521 185.616 66.9586 185.616 66.4089C185.616 65.5004 185.958 64.7937 186.642 64.289C187.326 63.773 188.19 63.515 189.233 63.515C189.749 63.515 190.226 63.5711 190.663 63.6833C191.112 63.7954 191.454 63.9244 191.689 64.0702V63.5487C191.689 62.9093 191.465 62.3989 191.016 62.0176C190.568 61.625 190.001 61.4287 189.317 61.4287C188.835 61.4287 188.392 61.5353 187.988 61.7484C187.584 61.9503 187.264 62.2363 187.029 62.6065L185.952 61.7989C186.289 61.2829 186.748 60.8791 187.332 60.5874C187.926 60.2958 188.582 60.15 189.3 60.15C190.467 60.15 191.381 60.4585 192.043 61.0754C192.716 61.6811 193.052 62.5111 193.052 63.5655V69H191.689V67.7718H191.622C191.375 68.1868 191.005 68.5401 190.512 68.8317C190.018 69.1234 189.463 69.2692 188.846 69.2692ZM188.981 68.0073C189.463 68.0073 189.912 67.8839 190.327 67.6372C190.742 67.3904 191.072 67.0595 191.319 66.6445C191.566 66.2295 191.689 65.7752 191.689 65.2817C191.42 65.1022 191.089 64.9564 190.697 64.8442C190.304 64.732 189.889 64.6759 189.452 64.6759C188.666 64.6759 188.072 64.8386 187.668 65.1639C187.276 65.4892 187.079 65.9098 187.079 66.4258C187.079 66.8969 187.259 67.2782 187.618 67.5699C187.977 67.8615 188.431 68.0073 188.981 68.0073ZM194.201 60.4192H195.563V61.6811H195.631C195.866 61.2548 196.242 60.8959 196.758 60.6043C197.274 60.3014 197.824 60.15 198.407 60.15C199.439 60.15 200.224 60.4528 200.762 61.0585C201.312 61.653 201.587 62.4663 201.587 63.4982V69H200.157V63.7169C200.157 62.9205 199.966 62.3429 199.585 61.9839C199.203 61.625 198.682 61.4455 198.02 61.4455C197.56 61.4455 197.145 61.5745 196.775 61.8325C196.416 62.0905 196.135 62.4326 195.934 62.8588C195.732 63.2739 195.631 63.7113 195.631 64.1712V69H194.201V60.4192ZM211.47 69.2692C210.304 69.2692 209.244 68.9944 208.291 68.4448C207.337 67.8952 206.586 67.1436 206.036 66.1902C205.498 65.2256 205.228 64.1544 205.228 62.9766C205.228 61.7989 205.498 60.7333 206.036 59.7798C206.586 58.8152 207.337 58.0581 208.291 57.5085C209.244 56.9588 210.304 56.684 211.47 56.684C212.368 56.684 213.187 56.8579 213.927 57.2056C214.678 57.5421 215.329 58.0244 215.879 58.6526L214.852 59.6452C214.392 59.0956 213.888 58.6918 213.338 58.4338C212.8 58.1758 212.177 58.0469 211.47 58.0469C210.596 58.0469 209.794 58.2544 209.064 58.6694C208.335 59.0732 207.752 59.6508 207.315 60.4024C206.888 61.1427 206.675 62.0008 206.675 62.9766C206.675 63.9525 206.888 64.8162 207.315 65.5677C207.752 66.308 208.335 66.8856 209.064 67.3007C209.794 67.7045 210.596 67.9064 211.47 67.9064C212.929 67.9064 214.168 67.3063 215.189 66.1061L216.232 67.1156C215.671 67.7774 214.981 68.3046 214.162 68.6971C213.344 69.0785 212.446 69.2692 211.47 69.2692ZM220.786 69.2692C219.945 69.2692 219.188 69.0673 218.515 68.6635C217.842 68.2597 217.315 67.7101 216.933 67.0146C216.563 66.3192 216.378 65.5509 216.378 64.7096C216.378 63.8683 216.563 63.1 216.933 62.4046C217.315 61.7091 217.842 61.1595 218.515 60.7557C219.188 60.3519 219.945 60.15 220.786 60.15C221.627 60.15 222.385 60.3519 223.058 60.7557C223.731 61.1595 224.252 61.7091 224.622 62.4046C225.004 63.1 225.194 63.8683 225.194 64.7096C225.194 65.5509 225.004 66.3192 224.622 67.0146C224.252 67.7101 223.731 68.2597 223.058 68.6635C222.385 69.0673 221.627 69.2692 220.786 69.2692ZM220.786 67.9737C221.313 67.9737 221.801 67.8447 222.25 67.5867C222.71 67.3175 223.074 66.9361 223.344 66.4426C223.624 65.949 223.764 65.3714 223.764 64.7096C223.764 64.0478 223.624 63.4701 223.344 62.9766C223.074 62.4831 222.71 62.1073 222.25 61.8493C221.801 61.5801 221.313 61.4455 220.786 61.4455C220.259 61.4455 219.765 61.5801 219.306 61.8493C218.846 62.1073 218.476 62.4831 218.195 62.9766C217.926 63.4701 217.791 64.0478 217.791 64.7096C217.791 65.3714 217.926 65.949 218.195 66.4426C218.476 66.9361 218.846 67.3175 219.306 67.5867C219.765 67.8447 220.259 67.9737 220.786 67.9737ZM225.932 56.9532H227.362V69H225.932V56.9532ZM228.639 56.9532H230.07V69H228.639V56.9532ZM235.084 69.2692C234.266 69.2692 233.531 69.0729 232.88 68.6803C232.23 68.2877 231.719 67.7493 231.349 67.0651C230.99 66.3697 230.811 65.5901 230.811 64.7264C230.811 63.8964 230.979 63.1336 231.316 62.4382C231.663 61.7428 232.151 61.1875 232.779 60.7725C233.407 60.3575 234.137 60.15 234.967 60.15C235.808 60.15 236.537 60.3407 237.154 60.722C237.771 61.0922 238.242 61.6082 238.567 62.27C238.904 62.9317 239.072 63.6889 239.072 64.5413C239.072 64.7096 239.055 64.8554 239.021 64.9788H232.241C232.275 65.6294 232.432 66.179 232.712 66.6277C232.992 67.0763 233.346 67.4128 233.772 67.6372C234.209 67.8615 234.664 67.9737 235.135 67.9737C236.234 67.9737 237.081 67.4577 237.675 66.4258L238.887 67.0146C238.517 67.7101 238.012 68.2597 237.373 68.6635C236.744 69.0673 235.982 69.2692 235.084 69.2692ZM237.558 63.801C237.535 63.4421 237.434 63.0832 237.255 62.7242C237.075 62.3653 236.789 62.0624 236.397 61.8157C236.015 61.5689 235.533 61.4455 234.95 61.4455C234.277 61.4455 233.705 61.6643 233.234 62.1017C232.774 62.5279 232.471 63.0944 232.325 63.801H237.558ZM243.755 72.9034C242.746 72.9034 241.91 72.6679 241.248 72.1968C240.598 71.7257 240.16 71.1592 239.936 70.4974L241.232 69.9422C241.422 70.4357 241.736 70.8339 242.174 71.1368C242.622 71.4509 243.15 71.6079 243.755 71.6079C244.641 71.6079 245.326 71.3499 245.808 70.8339C246.302 70.318 246.548 69.5889 246.548 68.6467V67.6876H246.481C246.201 68.1251 245.802 68.484 245.286 68.7644C244.782 69.0337 244.204 69.1683 243.553 69.1683C242.813 69.1683 242.135 68.9776 241.518 68.5962C240.912 68.2148 240.43 67.682 240.071 66.9978C239.712 66.3136 239.532 65.534 239.532 64.6591C239.532 63.7954 239.712 63.0215 240.071 62.3373C240.43 61.6418 240.912 61.1034 241.518 60.722C242.135 60.3407 242.813 60.15 243.553 60.15C244.204 60.15 244.782 60.2902 245.286 60.5706C245.802 60.8398 246.201 61.1988 246.481 61.6474H246.548V60.4192H247.911V68.6635C247.911 70.0432 247.53 71.0919 246.767 71.8098C246.004 72.5389 245 72.9034 243.755 72.9034ZM243.755 67.8727C244.271 67.8727 244.737 67.7437 245.152 67.4857C245.578 67.2278 245.915 66.8576 246.161 66.3753C246.419 65.893 246.548 65.3209 246.548 64.6591C246.548 63.9861 246.419 63.4085 246.161 62.9261C245.915 62.4438 245.578 62.0793 245.152 61.8325C244.737 61.5745 244.271 61.4455 243.755 61.4455C243.239 61.4455 242.768 61.5745 242.342 61.8325C241.916 62.0905 241.574 62.4606 241.316 62.943C241.069 63.4253 240.946 63.9973 240.946 64.6591C240.946 65.3209 241.069 65.8986 241.316 66.3921C241.574 66.8744 241.916 67.2446 242.342 67.5026C242.768 67.7493 243.239 67.8727 243.755 67.8727ZM252.922 69.2692C252.103 69.2692 251.368 69.0729 250.718 68.6803C250.067 68.2877 249.557 67.7493 249.186 67.0651C248.827 66.3697 248.648 65.5901 248.648 64.7264C248.648 63.8964 248.816 63.1336 249.153 62.4382C249.5 61.7428 249.988 61.1875 250.617 60.7725C251.245 60.3575 251.974 60.15 252.804 60.15C253.645 60.15 254.374 60.3407 254.991 60.722C255.608 61.0922 256.079 61.6082 256.404 62.27C256.741 62.9317 256.909 63.6889 256.909 64.5413C256.909 64.7096 256.892 64.8554 256.859 64.9788H250.078C250.112 65.6294 250.269 66.179 250.549 66.6277C250.83 67.0763 251.183 67.4128 251.609 67.6372C252.047 67.8615 252.501 67.9737 252.972 67.9737C254.071 67.9737 254.918 67.4577 255.513 66.4258L256.724 67.0146C256.354 67.7101 255.849 68.2597 255.21 68.6635C254.582 69.0673 253.819 69.2692 252.922 69.2692ZM255.395 63.801C255.372 63.4421 255.272 63.0832 255.092 62.7242C254.913 62.3653 254.627 62.0624 254.234 61.8157C253.853 61.5689 253.37 61.4455 252.787 61.4455C252.114 61.4455 251.542 61.6643 251.071 62.1017C250.611 62.5279 250.308 63.0944 250.162 63.801H255.395ZM260.819 69.2692C259.899 69.2692 259.13 69.0561 258.514 68.6298C257.897 68.1924 257.459 67.6372 257.201 66.9642L258.48 66.3921C258.693 66.9081 259.007 67.3063 259.422 67.5867C259.848 67.8671 260.314 68.0073 260.819 68.0073C261.357 68.0073 261.817 67.9008 262.198 67.6876C262.58 67.4633 262.77 67.1492 262.77 66.7454C262.77 66.3865 262.619 66.1005 262.316 65.8874C262.013 65.663 261.536 65.4723 260.886 65.3153L259.843 65.0461C259.159 64.8778 258.598 64.5918 258.16 64.188C257.723 63.7842 257.504 63.2626 257.504 62.6233C257.504 62.1297 257.65 61.6979 257.942 61.3278C258.244 60.9464 258.643 60.6547 259.136 60.4528C259.63 60.2509 260.162 60.15 260.734 60.15C261.486 60.15 262.153 60.3126 262.737 60.6379C263.331 60.9632 263.752 61.4175 263.999 62.0008L262.754 62.5728C262.372 61.8101 261.694 61.4287 260.718 61.4287C260.247 61.4287 259.832 61.5409 259.473 61.7652C259.125 61.9783 258.951 62.2531 258.951 62.5896C258.951 62.9037 259.074 63.1617 259.321 63.3636C259.568 63.5543 259.938 63.7113 260.432 63.8347L261.677 64.1544C262.518 64.3675 263.152 64.6872 263.578 65.1134C264.004 65.5284 264.217 66.0388 264.217 66.6445C264.217 67.1717 264.066 67.6372 263.763 68.041C263.46 68.4336 263.051 68.7364 262.535 68.9495C262.019 69.1626 261.447 69.2692 260.819 69.2692ZM268.29 56.9532H270.36L274.196 66.8296H274.263L278.099 56.9532H280.169V69H278.755V61.3446L278.823 59.0564H278.755L274.818 69H273.641L269.704 59.0564H269.636L269.704 61.3446V69H268.29V56.9532ZM282.578 58.8376C282.298 58.8376 282.057 58.7367 281.855 58.5348C281.653 58.3329 281.552 58.0917 281.552 57.8113C281.552 57.5309 281.653 57.2953 281.855 57.1047C282.057 56.9027 282.298 56.8018 282.578 56.8018C282.859 56.8018 283.1 56.9027 283.302 57.1047C283.504 57.2953 283.605 57.5309 283.605 57.8113C283.605 58.0917 283.504 58.3329 283.302 58.5348C283.111 58.7367 282.87 58.8376 282.578 58.8376ZM281.872 60.4192H283.285V69H281.872V60.4192ZM284.691 60.4192H286.054V61.6811H286.121C286.357 61.2548 286.733 60.8959 287.249 60.6043C287.765 60.3014 288.314 60.15 288.898 60.15C289.93 60.15 290.715 60.4528 291.253 61.0585C291.803 61.653 292.078 62.4663 292.078 63.4982V69H290.647V63.7169C290.647 62.9205 290.457 62.3429 290.075 61.9839C289.694 61.625 289.172 61.4455 288.511 61.4455C288.051 61.4455 287.636 61.5745 287.266 61.8325C286.907 62.0905 286.626 62.4326 286.424 62.8588C286.222 63.2739 286.121 63.7113 286.121 64.1712V69H284.691V60.4192ZM296.916 69.2692C296.153 69.2692 295.457 69.0729 294.829 68.6803C294.212 68.2877 293.724 67.7493 293.365 67.0651C293.007 66.3697 292.827 65.5845 292.827 64.7096C292.827 63.8459 293.007 63.0663 293.365 62.3709C293.724 61.6755 294.212 61.1315 294.829 60.7389C295.457 60.3463 296.153 60.15 296.916 60.15C297.577 60.15 298.166 60.3014 298.682 60.6043C299.198 60.8959 299.591 61.2605 299.86 61.6979H299.927L299.86 60.5033V56.9532H301.29V69H299.927V67.7381H299.86C299.591 68.1644 299.198 68.5289 298.682 68.8317C298.166 69.1234 297.577 69.2692 296.916 69.2692ZM297.084 67.9737C297.589 67.9737 298.054 67.8391 298.48 67.5699C298.918 67.3007 299.265 66.9193 299.523 66.4258C299.793 65.9322 299.927 65.3602 299.927 64.7096C299.927 64.059 299.793 63.487 299.523 62.9934C299.265 62.4999 298.918 62.1185 298.48 61.8493C298.054 61.5801 297.589 61.4455 297.084 61.4455C296.59 61.4455 296.125 61.5801 295.687 61.8493C295.25 62.1185 294.897 62.5055 294.627 63.0103C294.369 63.5038 294.24 64.0702 294.24 64.7096C294.24 65.349 294.369 65.921 294.627 66.4258C294.897 66.9193 295.25 67.3007 295.687 67.5699C296.125 67.8391 296.59 67.9737 297.084 67.9737ZM305.222 69.2692C304.594 69.2692 304.033 69.1458 303.539 68.899C303.046 68.6523 302.664 68.3158 302.395 67.8895C302.126 67.4521 301.991 66.9586 301.991 66.4089C301.991 65.5004 302.333 64.7937 303.018 64.289C303.702 63.773 304.566 63.515 305.609 63.515C306.125 63.515 306.601 63.5711 307.039 63.6833C307.488 63.7954 307.83 63.9244 308.065 64.0702V63.5487C308.065 62.9093 307.841 62.3989 307.392 62.0176C306.944 61.625 306.377 61.4287 305.693 61.4287C305.211 61.4287 304.768 61.5353 304.364 61.7484C303.96 61.9503 303.64 62.2363 303.405 62.6065L302.328 61.7989C302.664 61.2829 303.124 60.8791 303.708 60.5874C304.302 60.2958 304.958 60.15 305.676 60.15C306.843 60.15 307.757 60.4585 308.419 61.0754C309.092 61.6811 309.428 62.5111 309.428 63.5655V69H308.065V67.7718H307.998C307.751 68.1868 307.381 68.5401 306.887 68.8317C306.394 69.1234 305.839 69.2692 305.222 69.2692ZM305.356 68.0073C305.839 68.0073 306.287 67.8839 306.702 67.6372C307.117 67.3904 307.448 67.0595 307.695 66.6445C307.942 66.2295 308.065 65.7752 308.065 65.2817C307.796 65.1022 307.465 64.9564 307.073 64.8442C306.68 64.732 306.265 64.6759 305.827 64.6759C305.042 64.6759 304.448 64.8386 304.044 65.1639C303.651 65.4892 303.455 65.9098 303.455 66.4258C303.455 66.8969 303.635 67.2782 303.994 67.5699C304.352 67.8615 304.807 68.0073 305.356 68.0073ZM310.576 60.4192H311.939V61.6811H312.007C312.242 61.2548 312.618 60.8959 313.134 60.6043C313.65 60.3014 314.199 60.15 314.783 60.15C315.815 60.15 316.6 60.4528 317.138 61.0585C317.688 61.653 317.963 62.4663 317.963 63.4982V69H316.532V63.7169C316.532 62.9205 316.342 62.3429 315.96 61.9839C315.579 61.625 315.057 61.4455 314.396 61.4455C313.936 61.4455 313.521 61.5745 313.151 61.8325C312.792 62.0905 312.511 62.4326 312.309 62.8588C312.107 63.2739 312.007 63.7113 312.007 64.1712V69H310.576V60.4192ZM321.827 69.2692C321.199 69.2692 320.638 69.1458 320.144 68.899C319.651 68.6523 319.269 68.3158 319 67.8895C318.731 67.4521 318.596 66.9586 318.596 66.4089C318.596 65.5004 318.938 64.7937 319.623 64.289C320.307 63.773 321.171 63.515 322.214 63.515C322.73 63.515 323.206 63.5711 323.644 63.6833C324.093 63.7954 324.435 63.9244 324.67 64.0702V63.5487C324.67 62.9093 324.446 62.3989 323.997 62.0176C323.548 61.625 322.982 61.4287 322.298 61.4287C321.816 61.4287 321.372 61.5353 320.969 61.7484C320.565 61.9503 320.245 62.2363 320.01 62.6065L318.933 61.7989C319.269 61.2829 319.729 60.8791 320.312 60.5874C320.907 60.2958 321.563 60.15 322.281 60.15C323.448 60.15 324.362 60.4585 325.023 61.0754C325.696 61.6811 326.033 62.5111 326.033 63.5655V69H324.67V67.7718H324.603C324.356 68.1868 323.986 68.5401 323.492 68.8317C322.999 69.1234 322.444 69.2692 321.827 69.2692ZM321.961 68.0073C322.444 68.0073 322.892 67.8839 323.307 67.6372C323.722 67.3904 324.053 67.0595 324.3 66.6445C324.547 66.2295 324.67 65.7752 324.67 65.2817C324.401 65.1022 324.07 64.9564 323.677 64.8442C323.285 64.732 322.87 64.6759 322.432 64.6759C321.647 64.6759 321.053 64.8386 320.649 65.1639C320.256 65.4892 320.06 65.9098 320.06 66.4258C320.06 66.8969 320.24 67.2782 320.598 67.5699C320.957 67.8615 321.412 68.0073 321.961 68.0073ZM331.053 69.2692C330.212 69.2692 329.455 69.0673 328.782 68.6635C328.109 68.2597 327.581 67.7101 327.2 67.0146C326.83 66.3192 326.645 65.5509 326.645 64.7096C326.645 63.8683 326.83 63.1 327.2 62.4046C327.581 61.7091 328.109 61.1595 328.782 60.7557C329.455 60.3519 330.212 60.15 331.053 60.15C331.894 60.15 332.651 60.3519 333.324 60.7557C333.997 61.1595 334.519 61.7091 334.889 62.4046C335.271 63.1 335.461 63.8683 335.461 64.7096C335.461 65.5509 335.271 66.3192 334.889 67.0146C334.519 67.7101 333.997 68.2597 333.324 68.6635C332.651 69.0673 331.894 69.2692 331.053 69.2692ZM331.053 67.9737C331.58 67.9737 332.068 67.8447 332.517 67.5867C332.977 67.3175 333.341 66.9361 333.61 66.4426C333.891 65.949 334.031 65.3714 334.031 64.7096C334.031 64.0478 333.891 63.4701 333.61 62.9766C333.341 62.4831 332.977 62.1073 332.517 61.8493C332.068 61.5801 331.58 61.4455 331.053 61.4455C330.526 61.4455 330.032 61.5801 329.572 61.8493C329.113 62.1073 328.742 62.4831 328.462 62.9766C328.193 63.4701 328.058 64.0478 328.058 64.7096C328.058 65.3714 328.193 65.949 328.462 66.4426C328.742 66.9361 329.113 67.3175 329.572 67.5867C330.032 67.8447 330.526 67.9737 331.053 67.9737Z" fill="#373737"/>
<path fill-rule="evenodd" clip-rule="evenodd" d="M45.8718 36.0059L38.4363 31.7135C37.8044 31.3486 37.11 31.1093 36.3944 31.002L49.1999 23.6084C51.3697 22.3557 54.1437 23.0996 55.3969 25.2689C56.6495 27.4381 55.9062 30.2127 53.7364 31.4653L45.8718 36.0059ZM69.5747 23.6083L85.505 32.8063H85.5056C87.6754 34.0589 88.4187 36.8329 87.1661 39.0027C86.3255 40.4581 84.8012 41.2716 83.2332 41.2716C82.4633 41.2716 81.6835 41.0753 80.9691 40.6633L65.0382 31.4653C62.8684 30.2127 62.1251 27.4387 63.3777 25.2688C64.2183 23.8135 65.7426 23 67.3106 23C68.0799 23 68.8603 23.1963 69.5747 23.6083ZM37.8055 32.8062L53.7363 42.0036C55.9062 43.2556 56.6495 46.0302 55.3969 48.2C54.5563 49.6554 53.0319 50.4689 51.464 50.4689C50.6941 50.4689 49.9143 50.2732 49.1998 49.8606L33.269 40.6632C31.0992 39.4106 30.3559 36.6365 31.6085 34.4667C32.4491 33.0113 33.9734 32.1973 35.5414 32.1973C36.3112 32.1973 37.0911 32.3936 37.8055 32.8062ZM80.3383 41.7562L72.9028 37.4631L65.0382 42.0037C62.8684 43.2563 62.1251 46.0309 63.3777 48.2002C64.2177 49.6556 65.7426 50.469 67.3106 50.469C68.0804 50.469 68.8597 50.2727 69.5747 49.8607L82.3802 42.4676C81.6646 42.3604 80.9702 42.121 80.3377 41.7562H80.3383Z" fill="#373737"/>
</svg>
