<svg width="54" height="54" viewBox="0 0 54 54" fill="none" xmlns="http://www.w3.org/2000/svg">
<path d="M15.7181 0C7.05053 0 0 7.05706 0 15.7269V38.1876C0 46.8552 7.05706 53.9058 15.7269 53.9058H38.1876C46.8552 53.9058 53.9058 46.8487 53.9058 38.1789V15.7181C53.9058 7.05053 46.8487 0 38.1789 0H15.7181ZM42.6754 8.98429C43.9152 8.98429 44.9215 9.99053 44.9215 11.2304C44.9215 12.4702 43.9152 13.4764 42.6754 13.4764C41.4356 13.4764 40.4293 12.4702 40.4293 11.2304C40.4293 9.99053 41.4356 8.98429 42.6754 8.98429ZM26.9529 13.4764C34.3851 13.4764 40.4293 19.5206 40.4293 26.9529C40.4293 34.3851 34.3851 40.4293 26.9529 40.4293C19.5206 40.4293 13.4764 34.3851 13.4764 26.9529C13.4764 19.5206 19.5206 13.4764 26.9529 13.4764ZM26.9529 17.9686C24.5701 17.9686 22.2849 18.9151 20.6 20.6C18.9151 22.2849 17.9686 24.5701 17.9686 26.9529C17.9686 29.3357 18.9151 31.6208 20.6 33.3057C22.2849 34.9906 24.5701 35.9372 26.9529 35.9372C29.3357 35.9372 31.6208 34.9906 33.3057 33.3057C34.9906 31.6208 35.9372 29.3357 35.9372 26.9529C35.9372 24.5701 34.9906 22.2849 33.3057 20.6C31.6208 18.9151 29.3357 17.9686 26.9529 17.9686Z" fill="white"/>
</svg>
